<?xml version="1.0" encoding="UTF-8"?><svg xmlns="http://www.w3.org/2000/svg" xmlns:xlink="http://www.w3.org/1999/xlink" fill-opacity="1" color-rendering="auto" color-interpolation="auto" text-rendering="auto" stroke="black" stroke-linecap="square" width="490" stroke-miterlimit="10" shape-rendering="auto" stroke-opacity="1" fill="black" stroke-dasharray="none" font-weight="normal" stroke-width="1" height="347" font-family="'Dialog'" font-style="normal" stroke-linejoin="miter" font-size="12px" stroke-dashoffset="0" image-rendering="auto">
  <!--Generated by ySVG 2.5-->
  <defs id="genericDefs"/>
  <g>
    <defs id="defs1">
      <clipPath clipPathUnits="userSpaceOnUse" id="clipPath1">
        <path d="M0 0 L490 0 L490 347 L0 347 L0 0 Z"/>
      </clipPath>
      <clipPath clipPathUnits="userSpaceOnUse" id="clipPath2">
        <path d="M285 101 L897.5 101 L897.5 534.75 L285 534.75 L285 101 Z"/>
      </clipPath>
    </defs>
    <g fill="white" text-rendering="geometricPrecision" shape-rendering="geometricPrecision" transform="scale(0.8,0.8) translate(-285,-101)" stroke="white">
      <rect x="285" width="613" height="434" y="101" clip-path="url(#clipPath2)" stroke="none"/>
    </g>
    <g fill="rgb(24,176,226)" text-rendering="geometricPrecision" shape-rendering="geometricPrecision" transform="matrix(0.8,0,0,0.8,-228,-80.8)" stroke="rgb(24,176,226)">
      <rect x="289.1738" width="100" height="38.377" y="234.3926" clip-path="url(#clipPath2)" stroke="none"/>
    </g>
    <g font-size="20px" stroke-linecap="butt" transform="matrix(0.8,0,0,0.8,-228,-80.8)" text-rendering="geometricPrecision" font-family="'Roboto Condensed'" shape-rendering="geometricPrecision" stroke-miterlimit="1.45">
      <text x="304.335" xml:space="preserve" y="261.3496" clip-path="url(#clipPath2)" stroke="none">#18b0e2</text>
    </g>
    <g fill="rgb(199,201,199)" text-rendering="geometricPrecision" shape-rendering="geometricPrecision" transform="matrix(0.8,0,0,0.8,-228,-80.8)" stroke="rgb(199,201,199)">
      <rect x="289.1738" width="100" height="38.377" y="298.7695" clip-path="url(#clipPath2)" stroke="none"/>
    </g>
    <g font-size="20px" stroke-linecap="butt" transform="matrix(0.8,0,0,0.8,-228,-80.8)" text-rendering="geometricPrecision" font-family="'Roboto Condensed'" shape-rendering="geometricPrecision" stroke-miterlimit="1.45">
      <text x="305.0283" xml:space="preserve" y="325.7266" clip-path="url(#clipPath2)" stroke="none">#c7c9c7</text>
    </g>
    <g fill="rgb(0,32,91)" text-rendering="geometricPrecision" shape-rendering="geometricPrecision" transform="matrix(0.8,0,0,0.8,-228,-80.8)" stroke="rgb(0,32,91)">
      <rect x="289.1738" width="100" height="38.377" y="170.0156" clip-path="url(#clipPath2)" stroke="none"/>
    </g>
    <g stroke-linecap="butt" font-size="20px" transform="matrix(0.8,0,0,0.8,-228,-80.8)" fill="white" text-rendering="geometricPrecision" font-family="'Roboto Condensed'" shape-rendering="geometricPrecision" stroke="white" stroke-miterlimit="1.45">
      <text x="304.0811" xml:space="preserve" y="196.9727" clip-path="url(#clipPath2)" stroke="none">#00205b</text>
    </g>
    <g fill="white" text-rendering="geometricPrecision" shape-rendering="geometricPrecision" transform="matrix(0.8,0,0,0.8,-228,-80.8)" stroke="white">
      <rect x="289.1738" width="226" height="38.377" y="105.6387" clip-path="url(#clipPath2)" stroke="none"/>
    </g>
    <g text-rendering="geometricPrecision" stroke-miterlimit="1.45" shape-rendering="geometricPrecision" transform="matrix(0.8,0,0,0.8,-228,-80.8)" stroke-linecap="butt">
      <rect fill="none" x="289.1738" width="226" height="38.377" y="105.6387" clip-path="url(#clipPath2)"/>
      <text x="371.7002" font-size="20px" y="132.5957" clip-path="url(#clipPath2)" font-family="'Roboto Condensed'" stroke="none" xml:space="preserve">Original</text>
    </g>
    <g fill="rgb(85,85,85)" text-rendering="geometricPrecision" shape-rendering="geometricPrecision" transform="matrix(0.8,0,0,0.8,-228,-80.8)" stroke="rgb(85,85,85)">
      <rect x="289.1738" width="100" height="38.377" y="363.1465" clip-path="url(#clipPath2)" stroke="none"/>
    </g>
    <g stroke-linecap="butt" font-size="20px" transform="matrix(0.8,0,0,0.8,-228,-80.8)" fill="white" text-rendering="geometricPrecision" font-family="'Roboto Condensed'" shape-rendering="geometricPrecision" stroke="white" stroke-miterlimit="1.45">
      <text x="304.0762" xml:space="preserve" y="390.1035" clip-path="url(#clipPath2)" stroke="none">#555555</text>
    </g>
    <g fill="rgb(0,126,185)" text-rendering="geometricPrecision" shape-rendering="geometricPrecision" transform="matrix(0.8,0,0,0.8,-228,-80.8)" stroke="rgb(0,126,185)">
      <rect x="415.1738" width="100" height="38.377" y="234.3926" clip-path="url(#clipPath2)" stroke="none"/>
    </g>
    <g font-size="20px" stroke-linecap="butt" transform="matrix(0.8,0,0,0.8,-228,-80.8)" text-rendering="geometricPrecision" font-family="'Roboto Condensed'" shape-rendering="geometricPrecision" stroke-miterlimit="1.45">
      <text x="430.335" xml:space="preserve" y="261.3496" clip-path="url(#clipPath2)" stroke="none">#007eb9</text>
    </g>
    <g fill="rgb(164,196,36)" text-rendering="geometricPrecision" shape-rendering="geometricPrecision" transform="matrix(0.8,0,0,0.8,-228,-80.8)" stroke="rgb(164,196,36)">
      <rect x="415.1738" width="100" height="38.377" y="298.7695" clip-path="url(#clipPath2)" stroke="none"/>
    </g>
    <g font-size="20px" stroke-linecap="butt" transform="matrix(0.8,0,0,0.8,-228,-80.8)" text-rendering="geometricPrecision" font-family="'Roboto Condensed'" shape-rendering="geometricPrecision" stroke-miterlimit="1.45">
      <text x="430.54" xml:space="preserve" y="325.7266" clip-path="url(#clipPath2)" stroke="none">#a4c424</text>
    </g>
    <g fill="rgb(215,51,103)" text-rendering="geometricPrecision" shape-rendering="geometricPrecision" transform="matrix(0.8,0,0,0.8,-228,-80.8)" stroke="rgb(215,51,103)">
      <rect x="415.1738" width="100" height="38.377" y="170.0156" clip-path="url(#clipPath2)" stroke="none"/>
    </g>
    <g font-size="20px" stroke-linecap="butt" transform="matrix(0.8,0,0,0.8,-228,-80.8)" text-rendering="geometricPrecision" font-family="'Roboto Condensed'" shape-rendering="geometricPrecision" stroke-miterlimit="1.45">
      <text x="430.0518" xml:space="preserve" y="196.9727" clip-path="url(#clipPath2)" stroke="none">#d73367</text>
    </g>
    <g fill="rgb(242,149,18)" text-rendering="geometricPrecision" shape-rendering="geometricPrecision" transform="matrix(0.8,0,0,0.8,-228,-80.8)" stroke="rgb(242,149,18)">
      <rect x="415.1738" width="100" height="38.377" y="363.1465" clip-path="url(#clipPath2)" stroke="none"/>
    </g>
    <g font-size="20px" stroke-linecap="butt" transform="matrix(0.8,0,0,0.8,-228,-80.8)" text-rendering="geometricPrecision" font-family="'Roboto Condensed'" shape-rendering="geometricPrecision" stroke-miterlimit="1.45">
      <text x="431.8486" xml:space="preserve" y="390.1035" clip-path="url(#clipPath2)" stroke="none">#f29512</text>
    </g>
    <g fill="rgb(169,57,131)" text-rendering="geometricPrecision" shape-rendering="geometricPrecision" transform="matrix(0.8,0,0,0.8,-228,-80.8)" stroke="rgb(169,57,131)">
      <rect x="415.1738" width="100" height="38.377" y="427.5234" clip-path="url(#clipPath2)" stroke="none"/>
    </g>
    <g font-size="20px" stroke-linecap="butt" transform="matrix(0.8,0,0,0.8,-228,-80.8)" text-rendering="geometricPrecision" font-family="'Roboto Condensed'" shape-rendering="geometricPrecision" stroke-miterlimit="1.45">
      <text x="430.2227" xml:space="preserve" y="454.4805" clip-path="url(#clipPath2)" stroke="none">#a93983</text>
    </g>
    <g fill="rgb(177,205,68)" text-rendering="geometricPrecision" shape-rendering="geometricPrecision" transform="matrix(0.8,0,0,0.8,-228,-80.8)" stroke="rgb(177,205,68)">
      <rect x="541.1738" width="100" height="38.377" y="298.7695" clip-path="url(#clipPath2)" stroke="none"/>
    </g>
    <g font-size="20px" stroke-linecap="butt" transform="matrix(0.8,0,0,0.8,-228,-80.8)" text-rendering="geometricPrecision" font-family="'Roboto Condensed'" shape-rendering="geometricPrecision" stroke-miterlimit="1.45">
      <text x="556.374" xml:space="preserve" y="325.7266" clip-path="url(#clipPath2)" stroke="none">#b1cd44</text>
    </g>
    <g fill="rgb(246,176,77)" text-rendering="geometricPrecision" shape-rendering="geometricPrecision" transform="matrix(0.8,0,0,0.8,-228,-80.8)" stroke="rgb(246,176,77)">
      <rect x="541.1738" width="100" height="38.377" y="363.1465" clip-path="url(#clipPath2)" stroke="none"/>
    </g>
    <g font-size="20px" stroke-linecap="butt" transform="matrix(0.8,0,0,0.8,-228,-80.8)" text-rendering="geometricPrecision" font-family="'Roboto Condensed'" shape-rendering="geometricPrecision" stroke-miterlimit="1.45">
      <text x="557.8291" xml:space="preserve" y="390.1035" clip-path="url(#clipPath2)" stroke="none">#f6b04d</text>
    </g>
    <g fill="rgb(207,146,186)" text-rendering="geometricPrecision" shape-rendering="geometricPrecision" transform="matrix(0.8,0,0,0.8,-228,-80.8)" stroke="rgb(207,146,186)">
      <rect x="541.1738" width="100" height="38.377" y="427.5234" clip-path="url(#clipPath2)" stroke="none"/>
    </g>
    <g font-size="20px" stroke-linecap="butt" transform="matrix(0.8,0,0,0.8,-228,-80.8)" text-rendering="geometricPrecision" font-family="'Roboto Condensed'" shape-rendering="geometricPrecision" stroke-miterlimit="1.45">
      <text x="558.3174" xml:space="preserve" y="454.4805" clip-path="url(#clipPath2)" stroke="none">#cf92ba</text>
    </g>
    <g fill="rgb(169,169,169)" text-rendering="geometricPrecision" shape-rendering="geometricPrecision" transform="matrix(0.8,0,0,0.8,-228,-80.8)" stroke="rgb(169,169,169)">
      <rect x="541.1738" width="100" height="38.377" y="168.5855" clip-path="url(#clipPath2)" stroke="none"/>
    </g>
    <g font-size="20px" stroke-linecap="butt" transform="matrix(0.8,0,0,0.8,-228,-80.8)" text-rendering="geometricPrecision" font-family="'Roboto Condensed'" shape-rendering="geometricPrecision" stroke-miterlimit="1.45">
      <text x="556.5156" xml:space="preserve" y="195.5425" clip-path="url(#clipPath2)" stroke="none">#a9a9a9</text>
    </g>
    <g fill="rgb(104,203,236)" text-rendering="geometricPrecision" shape-rendering="geometricPrecision" transform="matrix(0.8,0,0,0.8,-228,-80.8)" stroke="rgb(104,203,236)">
      <rect x="541.1738" width="100" height="38.377" y="234.3926" clip-path="url(#clipPath2)" stroke="none"/>
    </g>
    <g font-size="20px" stroke-linecap="butt" transform="matrix(0.8,0,0,0.8,-228,-80.8)" text-rendering="geometricPrecision" font-family="'Roboto Condensed'" shape-rendering="geometricPrecision" stroke-miterlimit="1.45">
      <text x="556.9697" xml:space="preserve" y="261.3496" clip-path="url(#clipPath2)" stroke="none">#68cbec</text>
    </g>
    <g fill="rgb(228,121,124)" text-rendering="geometricPrecision" shape-rendering="geometricPrecision" transform="matrix(0.8,0,0,0.8,-228,-80.8)" stroke="rgb(228,121,124)">
      <rect x="541.1738" width="100" height="38.377" y="491.9004" clip-path="url(#clipPath2)" stroke="none"/>
    </g>
    <g font-size="20px" stroke-linecap="butt" transform="matrix(0.8,0,0,0.8,-228,-80.8)" text-rendering="geometricPrecision" font-family="'Roboto Condensed'" shape-rendering="geometricPrecision" stroke-miterlimit="1.45">
      <text x="556.6475" xml:space="preserve" y="518.8574" clip-path="url(#clipPath2)" stroke="none">#e4797c</text>
    </g>
    <g fill="rgb(209,225,145)" text-rendering="geometricPrecision" shape-rendering="geometricPrecision" transform="matrix(0.8,0,0,0.8,-228,-80.8)" stroke="rgb(209,225,145)">
      <rect x="667.1738" width="100" height="38.377" y="298.7695" clip-path="url(#clipPath2)" stroke="none"/>
    </g>
    <g font-size="20px" stroke-linecap="butt" transform="matrix(0.8,0,0,0.8,-228,-80.8)" text-rendering="geometricPrecision" font-family="'Roboto Condensed'" shape-rendering="geometricPrecision" stroke-miterlimit="1.45">
      <text x="682.3057" xml:space="preserve" y="325.7266" clip-path="url(#clipPath2)" stroke="none">#d1e191</text>
    </g>
    <g fill="rgb(249,207,148)" text-rendering="geometricPrecision" shape-rendering="geometricPrecision" transform="matrix(0.8,0,0,0.8,-228,-80.8)" stroke="rgb(249,207,148)">
      <rect x="667.1738" width="100" height="38.377" y="363.1465" clip-path="url(#clipPath2)" stroke="none"/>
    </g>
    <g font-size="20px" stroke-linecap="butt" transform="matrix(0.8,0,0,0.8,-228,-80.8)" text-rendering="geometricPrecision" font-family="'Roboto Condensed'" shape-rendering="geometricPrecision" stroke-miterlimit="1.45">
      <text x="685.9385" xml:space="preserve" y="390.1035" clip-path="url(#clipPath2)" stroke="none">#f9cf94</text>
    </g>
    <g fill="rgb(225,186,211)" text-rendering="geometricPrecision" shape-rendering="geometricPrecision" transform="matrix(0.8,0,0,0.8,-228,-80.8)" stroke="rgb(225,186,211)">
      <rect x="667.1738" width="100" height="38.377" y="427.5234" clip-path="url(#clipPath2)" stroke="none"/>
    </g>
    <g font-size="20px" stroke-linecap="butt" transform="matrix(0.8,0,0,0.8,-228,-80.8)" text-rendering="geometricPrecision" font-family="'Roboto Condensed'" shape-rendering="geometricPrecision" stroke-miterlimit="1.45">
      <text x="682.457" xml:space="preserve" y="454.4805" clip-path="url(#clipPath2)" stroke="none">#e1bad3</text>
    </g>
    <g fill="rgb(195,195,195)" text-rendering="geometricPrecision" shape-rendering="geometricPrecision" transform="matrix(0.8,0,0,0.8,-228,-80.8)" stroke="rgb(195,195,195)">
      <rect x="667.1738" width="100" height="38.377" y="168.5855" clip-path="url(#clipPath2)" stroke="none"/>
    </g>
    <g font-size="20px" stroke-linecap="butt" transform="matrix(0.8,0,0,0.8,-228,-80.8)" text-rendering="geometricPrecision" font-family="'Roboto Condensed'" shape-rendering="geometricPrecision" stroke-miterlimit="1.45">
      <text x="683.0283" xml:space="preserve" y="195.5425" clip-path="url(#clipPath2)" stroke="none">#c3c3c3</text>
    </g>
    <g fill="rgb(162,223,243)" text-rendering="geometricPrecision" shape-rendering="geometricPrecision" transform="matrix(0.8,0,0,0.8,-228,-80.8)" stroke="rgb(162,223,243)">
      <rect x="667.1738" width="100" height="38.377" y="234.3926" clip-path="url(#clipPath2)" stroke="none"/>
    </g>
    <g font-size="20px" stroke-linecap="butt" transform="matrix(0.8,0,0,0.8,-228,-80.8)" text-rendering="geometricPrecision" font-family="'Roboto Condensed'" shape-rendering="geometricPrecision" stroke-miterlimit="1.45">
      <text x="685.7432" xml:space="preserve" y="261.3496" clip-path="url(#clipPath2)" stroke="none">#a2dff3</text>
    </g>
    <g fill="rgb(241,183,185)" text-rendering="geometricPrecision" shape-rendering="geometricPrecision" transform="matrix(0.8,0,0,0.8,-228,-80.8)" stroke="rgb(241,183,185)">
      <rect x="667.1738" width="100" height="38.377" y="491.9004" clip-path="url(#clipPath2)" stroke="none"/>
    </g>
    <g font-size="20px" stroke-linecap="butt" transform="matrix(0.8,0,0,0.8,-228,-80.8)" text-rendering="geometricPrecision" font-family="'Roboto Condensed'" shape-rendering="geometricPrecision" stroke-miterlimit="1.45">
      <text x="683.8584" xml:space="preserve" y="518.8574" clip-path="url(#clipPath2)" stroke="none">#f1b7b9</text>
    </g>
    <g fill="white" text-rendering="geometricPrecision" shape-rendering="geometricPrecision" transform="matrix(0.8,0,0,0.8,-228,-80.8)" stroke="white">
      <rect x="541.1738" width="100" height="38.377" y="105.6387" clip-path="url(#clipPath2)" stroke="none"/>
    </g>
    <g text-rendering="geometricPrecision" stroke-miterlimit="1.45" shape-rendering="geometricPrecision" transform="matrix(0.8,0,0,0.8,-228,-80.8)" stroke-linecap="butt">
      <rect fill="none" x="541.1738" width="100" height="38.377" y="105.6387" clip-path="url(#clipPath2)"/>
      <text x="573.874" font-size="20px" y="132.5957" clip-path="url(#clipPath2)" font-family="'Roboto Condensed'" stroke="none" xml:space="preserve">dark</text>
    </g>
    <g fill="white" text-rendering="geometricPrecision" shape-rendering="geometricPrecision" transform="matrix(0.8,0,0,0.8,-228,-80.8)" stroke="white">
      <rect x="667.1738" width="100" height="38.377" y="105.6387" clip-path="url(#clipPath2)" stroke="none"/>
    </g>
    <g text-rendering="geometricPrecision" stroke-miterlimit="1.45" shape-rendering="geometricPrecision" transform="matrix(0.8,0,0,0.8,-228,-80.8)" stroke-linecap="butt">
      <rect fill="none" x="667.1738" width="100" height="38.377" y="105.6387" clip-path="url(#clipPath2)"/>
      <text x="699.8838" font-size="20px" y="132.5957" clip-path="url(#clipPath2)" font-family="'Roboto Condensed'" stroke="none" xml:space="preserve">light</text>
    </g>
    <g fill="rgb(228,238,189)" text-rendering="geometricPrecision" shape-rendering="geometricPrecision" transform="matrix(0.8,0,0,0.8,-228,-80.8)" stroke="rgb(228,238,189)">
      <rect x="793.1738" width="100" height="38.377" y="298.7695" clip-path="url(#clipPath2)" stroke="none"/>
    </g>
    <g font-size="20px" stroke-linecap="butt" transform="matrix(0.8,0,0,0.8,-228,-80.8)" text-rendering="geometricPrecision" font-family="'Roboto Condensed'" shape-rendering="geometricPrecision" stroke-miterlimit="1.45">
      <text x="808.8184" xml:space="preserve" y="325.7266" clip-path="url(#clipPath2)" stroke="none">#e4eebd</text>
    </g>
    <g fill="rgb(251,228,195)" text-rendering="geometricPrecision" shape-rendering="geometricPrecision" transform="matrix(0.8,0,0,0.8,-228,-80.8)" stroke="rgb(251,228,195)">
      <rect x="793.1738" width="100" height="38.377" y="363.1465" clip-path="url(#clipPath2)" stroke="none"/>
    </g>
    <g font-size="20px" stroke-linecap="butt" transform="matrix(0.8,0,0,0.8,-228,-80.8)" text-rendering="geometricPrecision" font-family="'Roboto Condensed'" shape-rendering="geometricPrecision" stroke-miterlimit="1.45">
      <text x="810.4248" xml:space="preserve" y="390.1035" clip-path="url(#clipPath2)" stroke="none">#fbe4c3</text>
    </g>
    <g fill="rgb(242,225,236)" text-rendering="geometricPrecision" shape-rendering="geometricPrecision" transform="matrix(0.8,0,0,0.8,-228,-80.8)" stroke="rgb(242,225,236)">
      <rect x="793.1738" width="100" height="38.377" y="427.5234" clip-path="url(#clipPath2)" stroke="none"/>
    </g>
    <g font-size="20px" stroke-linecap="butt" transform="matrix(0.8,0,0,0.8,-228,-80.8)" text-rendering="geometricPrecision" font-family="'Roboto Condensed'" shape-rendering="geometricPrecision" stroke-miterlimit="1.45">
      <text x="810.6738" xml:space="preserve" y="454.4805" clip-path="url(#clipPath2)" stroke="none">#f2e1ec</text>
    </g>
    <g fill="rgb(229,229,229)" text-rendering="geometricPrecision" shape-rendering="geometricPrecision" transform="matrix(0.8,0,0,0.8,-228,-80.8)" stroke="rgb(229,229,229)">
      <rect x="793.1738" width="100" height="38.377" y="168.5855" clip-path="url(#clipPath2)" stroke="none"/>
    </g>
    <g font-size="20px" stroke-linecap="butt" transform="matrix(0.8,0,0,0.8,-228,-80.8)" text-rendering="geometricPrecision" font-family="'Roboto Condensed'" shape-rendering="geometricPrecision" stroke-miterlimit="1.45">
      <text x="808.8379" xml:space="preserve" y="195.5425" clip-path="url(#clipPath2)" stroke="none">#e5e5e5</text>
    </g>
    <g fill="rgb(208,239,249)" text-rendering="geometricPrecision" shape-rendering="geometricPrecision" transform="matrix(0.8,0,0,0.8,-228,-80.8)" stroke="rgb(208,239,249)">
      <rect x="793.1738" width="100" height="38.377" y="234.3926" clip-path="url(#clipPath2)" stroke="none"/>
    </g>
    <g font-size="20px" stroke-linecap="butt" transform="matrix(0.8,0,0,0.8,-228,-80.8)" text-rendering="geometricPrecision" font-family="'Roboto Condensed'" shape-rendering="geometricPrecision" stroke-miterlimit="1.45">
      <text x="811.8506" xml:space="preserve" y="261.3496" clip-path="url(#clipPath2)" stroke="none">#d0eff9</text>
    </g>
    <g fill="rgb(249,224,225)" text-rendering="geometricPrecision" shape-rendering="geometricPrecision" transform="matrix(0.8,0,0,0.8,-228,-80.8)" stroke="rgb(249,224,225)">
      <rect x="793.1738" width="100" height="38.377" y="491.9004" clip-path="url(#clipPath2)" stroke="none"/>
    </g>
    <g font-size="20px" stroke-linecap="butt" transform="matrix(0.8,0,0,0.8,-228,-80.8)" text-rendering="geometricPrecision" font-family="'Roboto Condensed'" shape-rendering="geometricPrecision" stroke-miterlimit="1.45">
      <text x="810.3564" xml:space="preserve" y="518.8574" clip-path="url(#clipPath2)" stroke="none">#f9e0e1</text>
    </g>
    <g fill="white" text-rendering="geometricPrecision" shape-rendering="geometricPrecision" transform="matrix(0.8,0,0,0.8,-228,-80.8)" stroke="white">
      <rect x="793.1738" width="100" height="38.377" y="105.6387" clip-path="url(#clipPath2)" stroke="none"/>
    </g>
    <g text-rendering="geometricPrecision" stroke-miterlimit="1.45" shape-rendering="geometricPrecision" transform="matrix(0.8,0,0,0.8,-228,-80.8)" stroke-linecap="butt">
      <rect fill="none" x="793.1738" width="100" height="38.377" y="105.6387" clip-path="url(#clipPath2)"/>
      <text x="809.0088" font-size="20px" y="132.5957" clip-path="url(#clipPath2)" font-family="'Roboto Condensed'" stroke="none" xml:space="preserve">highlight</text>
    </g>
  </g>
</svg>
