<?xml version="1.0" encoding="UTF-8"?><svg xmlns="http://www.w3.org/2000/svg" xmlns:xlink="http://www.w3.org/1999/xlink" fill-opacity="1" color-rendering="auto" color-interpolation="auto" text-rendering="auto" stroke="black" stroke-linecap="square" width="741" stroke-miterlimit="10" shape-rendering="auto" stroke-opacity="1" fill="black" stroke-dasharray="none" font-weight="normal" stroke-width="1" height="557" font-family="'Dialog'" font-style="normal" stroke-linejoin="miter" font-size="12px" stroke-dashoffset="0" image-rendering="auto">
  <!--Generated by ySVG 2.5-->
  <defs id="genericDefs"/>
  <g>
    <defs id="defs1">
      <clipPath clipPathUnits="userSpaceOnUse" id="clipPath1">
        <path d="M0 0 L741 0 L741 557 L0 557 L0 0 Z"/>
      </clipPath>
      <clipPath clipPathUnits="userSpaceOnUse" id="clipPath2">
        <path d="M288 104 L1029 104 L1029 661 L288 661 L288 104 Z"/>
      </clipPath>
    </defs>
    <g fill="white" text-rendering="geometricPrecision" shape-rendering="geometricPrecision" transform="translate(-288,-104)" stroke="white">
      <rect x="288" width="741" height="557" y="104" clip-path="url(#clipPath2)" stroke="none"/>
    </g>
    <g fill="rgb(24,176,226)" text-rendering="geometricPrecision" shape-rendering="geometricPrecision" transform="matrix(1,0,0,1,-288,-104)" stroke="rgb(24,176,226)">
      <rect x="289.1738" width="100" height="38.377" y="234.3926" clip-path="url(#clipPath2)" stroke="none"/>
    </g>
    <g stroke-linecap="butt" font-size="20px" transform="matrix(1,0,0,1,-288,-104)" fill="white" text-rendering="geometricPrecision" font-family="'Roboto Condensed'" shape-rendering="geometricPrecision" stroke="white" stroke-miterlimit="1.45">
      <text x="304.335" xml:space="preserve" y="261.3496" clip-path="url(#clipPath2)" stroke="none">#18b0e2</text>
    </g>
    <g fill="rgb(199,201,199)" text-rendering="geometricPrecision" shape-rendering="geometricPrecision" transform="matrix(1,0,0,1,-288,-104)" stroke="rgb(199,201,199)">
      <rect x="289.1738" width="100" height="38.377" y="298.7695" clip-path="url(#clipPath2)" stroke="none"/>
    </g>
    <g font-size="20px" stroke-linecap="butt" transform="matrix(1,0,0,1,-288,-104)" text-rendering="geometricPrecision" font-family="'Roboto Condensed'" shape-rendering="geometricPrecision" stroke-miterlimit="1.45">
      <text x="305.0283" xml:space="preserve" y="325.7266" clip-path="url(#clipPath2)" stroke="none">#c7c9c7</text>
    </g>
    <g fill="rgb(0,32,91)" text-rendering="geometricPrecision" shape-rendering="geometricPrecision" transform="matrix(1,0,0,1,-288,-104)" stroke="rgb(0,32,91)">
      <rect x="289.1738" width="100" height="38.377" y="170.0156" clip-path="url(#clipPath2)" stroke="none"/>
    </g>
    <g stroke-linecap="butt" font-size="20px" transform="matrix(1,0,0,1,-288,-104)" fill="white" text-rendering="geometricPrecision" font-family="'Roboto Condensed'" shape-rendering="geometricPrecision" stroke="white" stroke-miterlimit="1.45">
      <text x="304.0811" xml:space="preserve" y="196.9727" clip-path="url(#clipPath2)" stroke="none">#00205b</text>
    </g>
    <g fill="white" text-rendering="geometricPrecision" shape-rendering="geometricPrecision" transform="matrix(1,0,0,1,-288,-104)" stroke="white">
      <rect x="289.1738" width="350" height="38.377" y="105.6387" clip-path="url(#clipPath2)" stroke="none"/>
    </g>
    <g text-rendering="geometricPrecision" stroke-miterlimit="1.45" shape-rendering="geometricPrecision" transform="matrix(1,0,0,1,-288,-104)" stroke-linecap="butt">
      <rect fill="none" x="289.1738" width="350" height="38.377" y="105.6387" clip-path="url(#clipPath2)"/>
      <text x="433.7002" font-size="20px" y="132.5957" clip-path="url(#clipPath2)" font-family="'Roboto Condensed'" stroke="none" xml:space="preserve">Original</text>
    </g>
    <g fill="rgb(85,85,85)" text-rendering="geometricPrecision" shape-rendering="geometricPrecision" transform="matrix(1,0,0,1,-288,-104)" stroke="rgb(85,85,85)">
      <rect x="289.1738" width="100" height="38.377" y="363.1465" clip-path="url(#clipPath2)" stroke="none"/>
    </g>
    <g stroke-linecap="butt" font-size="20px" transform="matrix(1,0,0,1,-288,-104)" fill="white" text-rendering="geometricPrecision" font-family="'Roboto Condensed'" shape-rendering="geometricPrecision" stroke="white" stroke-miterlimit="1.45">
      <text x="304.0762" xml:space="preserve" y="390.1035" clip-path="url(#clipPath2)" stroke="none">#555555</text>
    </g>
    <g fill="rgb(0,126,185)" text-rendering="geometricPrecision" shape-rendering="geometricPrecision" transform="matrix(1,0,0,1,-288,-104)" stroke="rgb(0,126,185)">
      <rect x="415.1738" width="100" height="38.377" y="234.3926" clip-path="url(#clipPath2)" stroke="none"/>
    </g>
    <g stroke-linecap="butt" font-size="20px" transform="matrix(1,0,0,1,-288,-104)" fill="white" text-rendering="geometricPrecision" font-family="'Roboto Condensed'" shape-rendering="geometricPrecision" stroke="white" stroke-miterlimit="1.45">
      <text x="430.335" xml:space="preserve" y="261.3496" clip-path="url(#clipPath2)" stroke="none">#007eb9</text>
    </g>
    <g fill="rgb(164,196,36)" text-rendering="geometricPrecision" shape-rendering="geometricPrecision" transform="matrix(1,0,0,1,-288,-104)" stroke="rgb(164,196,36)">
      <rect x="415.1738" width="100" height="38.377" y="298.7695" clip-path="url(#clipPath2)" stroke="none"/>
    </g>
    <g font-size="20px" stroke-linecap="butt" transform="matrix(1,0,0,1,-288,-104)" text-rendering="geometricPrecision" font-family="'Roboto Condensed'" shape-rendering="geometricPrecision" stroke-miterlimit="1.45">
      <text x="430.54" xml:space="preserve" y="325.7266" clip-path="url(#clipPath2)" stroke="none">#a4c424</text>
    </g>
    <g fill="rgb(215,51,103)" text-rendering="geometricPrecision" shape-rendering="geometricPrecision" transform="matrix(1,0,0,1,-288,-104)" stroke="rgb(215,51,103)">
      <rect x="415.1738" width="100" height="38.377" y="170.0156" clip-path="url(#clipPath2)" stroke="none"/>
    </g>
    <g stroke-linecap="butt" font-size="20px" transform="matrix(1,0,0,1,-288,-104)" fill="white" text-rendering="geometricPrecision" font-family="'Roboto Condensed'" shape-rendering="geometricPrecision" stroke="white" stroke-miterlimit="1.45">
      <text x="430.0518" xml:space="preserve" y="196.9727" clip-path="url(#clipPath2)" stroke="none">#d73367</text>
    </g>
    <g fill="rgb(242,149,18)" text-rendering="geometricPrecision" shape-rendering="geometricPrecision" transform="matrix(1,0,0,1,-288,-104)" stroke="rgb(242,149,18)">
      <rect x="415.1738" width="100" height="38.377" y="363.1465" clip-path="url(#clipPath2)" stroke="none"/>
    </g>
    <g font-size="20px" stroke-linecap="butt" transform="matrix(1,0,0,1,-288,-104)" text-rendering="geometricPrecision" font-family="'Roboto Condensed'" shape-rendering="geometricPrecision" stroke-miterlimit="1.45">
      <text x="431.8486" xml:space="preserve" y="390.1035" clip-path="url(#clipPath2)" stroke="none">#f29512</text>
    </g>
    <g fill="rgb(169,57,131)" text-rendering="geometricPrecision" shape-rendering="geometricPrecision" transform="matrix(1,0,0,1,-288,-104)" stroke="rgb(169,57,131)">
      <rect x="415.1738" width="100" height="38.377" y="427.5234" clip-path="url(#clipPath2)" stroke="none"/>
    </g>
    <g stroke-linecap="butt" font-size="20px" transform="matrix(1,0,0,1,-288,-104)" fill="white" text-rendering="geometricPrecision" font-family="'Roboto Condensed'" shape-rendering="geometricPrecision" stroke="white" stroke-miterlimit="1.45">
      <text x="430.2227" xml:space="preserve" y="454.4805" clip-path="url(#clipPath2)" stroke="none">#a93983</text>
    </g>
    <g fill="rgb(198,53,39)" text-rendering="geometricPrecision" shape-rendering="geometricPrecision" transform="matrix(1,0,0,1,-288,-104)" stroke="rgb(198,53,39)">
      <rect x="541.1738" width="100" height="38.377" y="234.3926" clip-path="url(#clipPath2)" stroke="none"/>
    </g>
    <g stroke-linecap="butt" font-size="20px" transform="matrix(1,0,0,1,-288,-104)" fill="white" text-rendering="geometricPrecision" font-family="'Roboto Condensed'" shape-rendering="geometricPrecision" stroke="white" stroke-miterlimit="1.45">
      <text x="556.3936" xml:space="preserve" y="261.3496" clip-path="url(#clipPath2)" stroke="none">#c63527</text>
    </g>
    <g fill="rgb(255,198,0)" text-rendering="geometricPrecision" shape-rendering="geometricPrecision" transform="matrix(1,0,0,1,-288,-104)" stroke="rgb(255,198,0)">
      <rect x="541.1738" width="100" height="38.377" y="170.0156" clip-path="url(#clipPath2)" stroke="none"/>
    </g>
    <g font-size="20px" stroke-linecap="butt" transform="matrix(1,0,0,1,-288,-104)" text-rendering="geometricPrecision" font-family="'Roboto Condensed'" shape-rendering="geometricPrecision" stroke-miterlimit="1.45">
      <text x="559.9385" xml:space="preserve" y="196.9727" clip-path="url(#clipPath2)" stroke="none">#ffc600</text>
    </g>
    <g fill="rgb(0,155,119)" text-rendering="geometricPrecision" shape-rendering="geometricPrecision" transform="matrix(1,0,0,1,-288,-104)" stroke="rgb(0,155,119)">
      <rect x="541.1738" width="100" height="38.377" y="298.7695" clip-path="url(#clipPath2)" stroke="none"/>
    </g>
    <g stroke-linecap="butt" font-size="20px" transform="matrix(1,0,0,1,-288,-104)" fill="white" text-rendering="geometricPrecision" font-family="'Roboto Condensed'" shape-rendering="geometricPrecision" stroke="white" stroke-miterlimit="1.45">
      <text x="556.0811" xml:space="preserve" y="325.7266" clip-path="url(#clipPath2)" stroke="none">#009b77</text>
    </g>
    <g fill="rgb(123,196,220)" text-rendering="geometricPrecision" shape-rendering="geometricPrecision" transform="matrix(1,0,0,1,-288,-104)" stroke="rgb(123,196,220)">
      <rect x="667.1738" y="170.0156" clip-path="url(#clipPath2)" width="100" rx="4" ry="4" height="38.377" stroke="none"/>
    </g>
    <g text-rendering="geometricPrecision" stroke-miterlimit="1.45" shape-rendering="geometricPrecision" transform="matrix(1,0,0,1,-288,-104)" stroke-linecap="butt">
      <rect x="667.1738" y="170.0156" clip-path="url(#clipPath2)" fill="none" width="100" rx="4" ry="4" height="38.377"/>
      <text x="682.6914" font-size="20px" y="196.9727" clip-path="url(#clipPath2)" font-family="'Roboto Condensed'" stroke="none" xml:space="preserve">#7bc4dc</text>
    </g>
    <g fill="rgb(199,201,199)" text-rendering="geometricPrecision" shape-rendering="geometricPrecision" transform="matrix(1,0,0,1,-288,-104)" stroke="rgb(199,201,199)">
      <rect x="667.1738" y="491.9004" clip-path="url(#clipPath2)" width="100" rx="4" ry="4" height="38.377" stroke="none"/>
    </g>
    <g text-rendering="geometricPrecision" stroke-miterlimit="1.45" shape-rendering="geometricPrecision" transform="matrix(1,0,0,1,-288,-104)" stroke-linecap="butt">
      <rect x="667.1738" y="491.9004" clip-path="url(#clipPath2)" fill="none" width="100" rx="4" ry="4" height="38.377"/>
      <text x="683.0283" font-size="20px" y="518.8574" clip-path="url(#clipPath2)" font-family="'Roboto Condensed'" stroke="none" xml:space="preserve">#c7c9c7</text>
    </g>
    <g fill="rgb(184,211,75)" text-rendering="geometricPrecision" shape-rendering="geometricPrecision" transform="matrix(1,0,0,1,-288,-104)" stroke="rgb(184,211,75)">
      <rect x="667.1738" y="298.7695" clip-path="url(#clipPath2)" width="100" rx="4" ry="4" height="38.377" stroke="none"/>
    </g>
    <g text-rendering="geometricPrecision" stroke-miterlimit="1.45" shape-rendering="geometricPrecision" transform="matrix(1,0,0,1,-288,-104)" stroke-linecap="butt">
      <rect x="667.1738" y="298.7695" clip-path="url(#clipPath2)" fill="none" width="100" rx="4" ry="4" height="38.377"/>
      <text x="682.0615" font-size="20px" y="325.7266" clip-path="url(#clipPath2)" font-family="'Roboto Condensed'" stroke="none" xml:space="preserve">#b8d34b</text>
    </g>
    <g fill="rgb(243,171,69)" text-rendering="geometricPrecision" shape-rendering="geometricPrecision" transform="matrix(1,0,0,1,-288,-104)" stroke="rgb(243,171,69)">
      <rect x="667.1738" y="238.3926" clip-path="url(#clipPath2)" width="100" rx="4" ry="4" height="38.377" stroke="none"/>
    </g>
    <g text-rendering="geometricPrecision" stroke-miterlimit="1.45" shape-rendering="geometricPrecision" transform="matrix(1,0,0,1,-288,-104)" stroke-linecap="butt">
      <rect x="667.1738" y="238.3926" clip-path="url(#clipPath2)" fill="none" width="100" rx="4" ry="4" height="38.377"/>
      <text x="684" font-size="20px" y="265.3496" clip-path="url(#clipPath2)" font-family="'Roboto Condensed'" stroke="none" xml:space="preserve">#f3ab45</text>
    </g>
    <g fill="rgb(217,113,182)" text-rendering="geometricPrecision" shape-rendering="geometricPrecision" transform="matrix(1,0,0,1,-288,-104)" stroke="rgb(217,113,182)">
      <rect x="667.1738" y="556.2773" clip-path="url(#clipPath2)" width="100" rx="4" ry="4" height="38.377" stroke="none"/>
    </g>
    <g text-rendering="geometricPrecision" stroke-miterlimit="1.45" shape-rendering="geometricPrecision" transform="matrix(1,0,0,1,-288,-104)" stroke-linecap="butt">
      <rect x="667.1738" y="556.2773" clip-path="url(#clipPath2)" fill="none" width="100" rx="4" ry="4" height="38.377"/>
      <text x="682.0566" font-size="20px" y="583.2344" clip-path="url(#clipPath2)" font-family="'Roboto Condensed'" stroke="none" xml:space="preserve">#d971b6</text>
    </g>
    <g fill="rgb(233,102,91)" text-rendering="geometricPrecision" shape-rendering="geometricPrecision" transform="matrix(1,0,0,1,-288,-104)" stroke="rgb(233,102,91)">
      <rect x="667.1738" y="363.1465" clip-path="url(#clipPath2)" width="100" rx="4" ry="4" height="38.377" stroke="none"/>
    </g>
    <g text-rendering="geometricPrecision" stroke-miterlimit="1.45" shape-rendering="geometricPrecision" transform="matrix(1,0,0,1,-288,-104)" stroke-linecap="butt">
      <rect x="667.1738" y="363.1465" clip-path="url(#clipPath2)" fill="none" width="100" rx="4" ry="4" height="38.377"/>
      <text x="682.335" font-size="20px" y="390.1035" clip-path="url(#clipPath2)" font-family="'Roboto Condensed'" stroke="none" xml:space="preserve">#e9665b</text>
    </g>
    <g fill="rgb(247,208,63)" text-rendering="geometricPrecision" shape-rendering="geometricPrecision" transform="matrix(1,0,0,1,-288,-104)" stroke="rgb(247,208,63)">
      <rect x="667.1738" y="427.5234" clip-path="url(#clipPath2)" width="100" rx="4" ry="4" height="38.377" stroke="none"/>
    </g>
    <g text-rendering="geometricPrecision" stroke-miterlimit="1.45" shape-rendering="geometricPrecision" transform="matrix(1,0,0,1,-288,-104)" stroke-linecap="butt">
      <rect x="667.1738" y="427.5234" clip-path="url(#clipPath2)" fill="none" width="100" rx="4" ry="4" height="38.377"/>
      <text x="685.5967" font-size="20px" y="454.4805" clip-path="url(#clipPath2)" font-family="'Roboto Condensed'" stroke="none" xml:space="preserve">#f7d03f</text>
    </g>
    <g fill="rgb(148,218,202)" text-rendering="geometricPrecision" shape-rendering="geometricPrecision" transform="matrix(1,0,0,1,-288,-104)" stroke="rgb(148,218,202)">
      <rect x="667.1738" y="620.6543" clip-path="url(#clipPath2)" width="100" rx="4" ry="4" height="38.377" stroke="none"/>
    </g>
    <g text-rendering="geometricPrecision" stroke-miterlimit="1.45" shape-rendering="geometricPrecision" transform="matrix(1,0,0,1,-288,-104)" stroke-linecap="butt">
      <rect x="667.1738" y="620.6543" clip-path="url(#clipPath2)" fill="none" width="100" rx="4" ry="4" height="38.377"/>
      <text x="682.6621" font-size="20px" y="647.6113" clip-path="url(#clipPath2)" font-family="'Roboto Condensed'" stroke="none" xml:space="preserve">#94daca</text>
    </g>
    <g fill="rgb(169,216,232)" text-rendering="geometricPrecision" shape-rendering="geometricPrecision" transform="matrix(1,0,0,1,-288,-104)" stroke="rgb(169,216,232)">
      <rect x="797.1738" y="170.0156" clip-path="url(#clipPath2)" width="100" rx="4" ry="4" height="38.377" stroke="none"/>
    </g>
    <g text-rendering="geometricPrecision" stroke-miterlimit="1.45" shape-rendering="geometricPrecision" transform="matrix(1,0,0,1,-288,-104)" stroke-linecap="butt">
      <rect x="797.1738" y="170.0156" clip-path="url(#clipPath2)" fill="none" width="100" rx="4" ry="4" height="38.377"/>
      <text x="812.4521" font-size="20px" y="196.9727" clip-path="url(#clipPath2)" font-family="'Roboto Condensed'" stroke="none" xml:space="preserve">#a9d8e8</text>
    </g>
    <g fill="rgb(219,220,219)" text-rendering="geometricPrecision" shape-rendering="geometricPrecision" transform="matrix(1,0,0,1,-288,-104)" stroke="rgb(219,220,219)">
      <rect x="797.1738" y="491.9004" clip-path="url(#clipPath2)" width="100" rx="4" ry="4" height="38.377" stroke="none"/>
    </g>
    <g text-rendering="geometricPrecision" stroke-miterlimit="1.45" shape-rendering="geometricPrecision" transform="matrix(1,0,0,1,-288,-104)" stroke-linecap="butt">
      <rect x="797.1738" y="491.9004" clip-path="url(#clipPath2)" fill="none" width="100" rx="4" ry="4" height="38.377"/>
      <text x="812.3301" font-size="20px" y="518.8574" clip-path="url(#clipPath2)" font-family="'Roboto Condensed'" stroke="none" xml:space="preserve">#dbdcdb</text>
    </g>
    <g fill="rgb(209,226,138)" text-rendering="geometricPrecision" shape-rendering="geometricPrecision" transform="matrix(1,0,0,1,-288,-104)" stroke="rgb(209,226,138)">
      <rect x="797.1738" y="298.7695" clip-path="url(#clipPath2)" width="100" rx="4" ry="4" height="38.377" stroke="none"/>
    </g>
    <g text-rendering="geometricPrecision" stroke-miterlimit="1.45" shape-rendering="geometricPrecision" transform="matrix(1,0,0,1,-288,-104)" stroke-linecap="butt">
      <rect x="797.1738" y="298.7695" clip-path="url(#clipPath2)" fill="none" width="100" rx="4" ry="4" height="38.377"/>
      <text x="812.4521" font-size="20px" y="325.7266" clip-path="url(#clipPath2)" font-family="'Roboto Condensed'" stroke="none" xml:space="preserve">#d1e28a</text>
    </g>
    <g fill="rgb(247,200,134)" text-rendering="geometricPrecision" shape-rendering="geometricPrecision" transform="matrix(1,0,0,1,-288,-104)" stroke="rgb(247,200,134)">
      <rect x="797.1738" y="238.3926" clip-path="url(#clipPath2)" width="100" rx="4" ry="4" height="38.377" stroke="none"/>
    </g>
    <g text-rendering="geometricPrecision" stroke-miterlimit="1.45" shape-rendering="geometricPrecision" transform="matrix(1,0,0,1,-288,-104)" stroke-linecap="butt">
      <rect x="797.1738" y="238.3926" clip-path="url(#clipPath2)" fill="none" width="100" rx="4" ry="4" height="38.377"/>
      <text x="814.166" font-size="20px" y="265.3496" clip-path="url(#clipPath2)" font-family="'Roboto Condensed'" stroke="none" xml:space="preserve">#f7c886</text>
    </g>
    <g fill="rgb(230,163,208)" text-rendering="geometricPrecision" shape-rendering="geometricPrecision" transform="matrix(1,0,0,1,-288,-104)" stroke="rgb(230,163,208)">
      <rect x="797.1738" y="556.2773" clip-path="url(#clipPath2)" width="100" rx="4" ry="4" height="38.377" stroke="none"/>
    </g>
    <g text-rendering="geometricPrecision" stroke-miterlimit="1.45" shape-rendering="geometricPrecision" transform="matrix(1,0,0,1,-288,-104)" stroke-linecap="butt">
      <rect x="797.1738" y="556.2773" clip-path="url(#clipPath2)" fill="none" width="100" rx="4" ry="4" height="38.377"/>
      <text x="812.4521" font-size="20px" y="583.2344" clip-path="url(#clipPath2)" font-family="'Roboto Condensed'" stroke="none" xml:space="preserve">#e6a3d0</text>
    </g>
    <g fill="rgb(241,155,148)" text-rendering="geometricPrecision" shape-rendering="geometricPrecision" transform="matrix(1,0,0,1,-288,-104)" stroke="rgb(241,155,148)">
      <rect x="797.1738" y="363.1465" clip-path="url(#clipPath2)" width="100" rx="4" ry="4" height="38.377" stroke="none"/>
    </g>
    <g text-rendering="geometricPrecision" stroke-miterlimit="1.45" shape-rendering="geometricPrecision" transform="matrix(1,0,0,1,-288,-104)" stroke-linecap="butt">
      <rect x="797.1738" y="363.1465" clip-path="url(#clipPath2)" fill="none" width="100" rx="4" ry="4" height="38.377"/>
      <text x="813.8535" font-size="20px" y="390.1035" clip-path="url(#clipPath2)" font-family="'Roboto Condensed'" stroke="none" xml:space="preserve">#f19b94</text>
    </g>
    <g fill="rgb(250,224,130)" text-rendering="geometricPrecision" shape-rendering="geometricPrecision" transform="matrix(1,0,0,1,-288,-104)" stroke="rgb(250,224,130)">
      <rect x="797.1738" y="427.5234" clip-path="url(#clipPath2)" width="100" rx="4" ry="4" height="38.377" stroke="none"/>
    </g>
    <g text-rendering="geometricPrecision" stroke-miterlimit="1.45" shape-rendering="geometricPrecision" transform="matrix(1,0,0,1,-288,-104)" stroke-linecap="butt">
      <rect x="797.1738" y="427.5234" clip-path="url(#clipPath2)" fill="none" width="100" rx="4" ry="4" height="38.377"/>
      <text x="814.249" font-size="20px" y="454.4805" clip-path="url(#clipPath2)" font-family="'Roboto Condensed'" stroke="none" xml:space="preserve">#fae082</text>
    </g>
    <g fill="rgb(185,231,220)" text-rendering="geometricPrecision" shape-rendering="geometricPrecision" transform="matrix(1,0,0,1,-288,-104)" stroke="rgb(185,231,220)">
      <rect x="797.1738" y="620.6543" clip-path="url(#clipPath2)" width="100" rx="4" ry="4" height="38.377" stroke="none"/>
    </g>
    <g text-rendering="geometricPrecision" stroke-miterlimit="1.45" shape-rendering="geometricPrecision" transform="matrix(1,0,0,1,-288,-104)" stroke-linecap="butt">
      <rect x="797.1738" y="620.6543" clip-path="url(#clipPath2)" fill="none" width="100" rx="4" ry="4" height="38.377"/>
      <text x="812.6279" font-size="20px" y="647.6113" clip-path="url(#clipPath2)" font-family="'Roboto Condensed'" stroke="none" xml:space="preserve">#b9e7dc</text>
    </g>
    <g fill="rgb(229,243,248)" text-rendering="geometricPrecision" shape-rendering="geometricPrecision" transform="matrix(1,0,0,1,-288,-104)" stroke="rgb(229,243,248)">
      <rect x="927.1738" width="100" height="38.377" y="170.0156" clip-path="url(#clipPath2)" stroke="none"/>
    </g>
    <g font-size="20px" stroke-linecap="butt" transform="matrix(1,0,0,1,-288,-104)" text-rendering="geometricPrecision" font-family="'Roboto Condensed'" shape-rendering="geometricPrecision" stroke-miterlimit="1.45">
      <text x="945.875" xml:space="preserve" y="196.9727" clip-path="url(#clipPath2)" stroke="none">#e5f3f8</text>
    </g>
    <g fill="rgb(244,244,244)" text-rendering="geometricPrecision" shape-rendering="geometricPrecision" transform="matrix(1,0,0,1,-288,-104)" stroke="rgb(244,244,244)">
      <rect x="927.1738" width="100" height="38.377" y="491.9004" clip-path="url(#clipPath2)" stroke="none"/>
    </g>
    <g font-size="20px" stroke-linecap="butt" transform="matrix(1,0,0,1,-288,-104)" text-rendering="geometricPrecision" font-family="'Roboto Condensed'" shape-rendering="geometricPrecision" stroke-miterlimit="1.45">
      <text x="947.3936" xml:space="preserve" y="518.8574" clip-path="url(#clipPath2)" stroke="none">#f4f4f4</text>
    </g>
    <g fill="rgb(241,246,219)" text-rendering="geometricPrecision" shape-rendering="geometricPrecision" transform="matrix(1,0,0,1,-288,-104)" stroke="rgb(241,246,219)">
      <rect x="927.1738" width="100" height="38.377" y="298.7695" clip-path="url(#clipPath2)" stroke="none"/>
    </g>
    <g font-size="20px" stroke-linecap="butt" transform="matrix(1,0,0,1,-288,-104)" text-rendering="geometricPrecision" font-family="'Roboto Condensed'" shape-rendering="geometricPrecision" stroke-miterlimit="1.45">
      <text x="945.6016" xml:space="preserve" y="325.7266" clip-path="url(#clipPath2)" stroke="none">#f1f6db</text>
    </g>
    <g fill="rgb(253,238,218)" text-rendering="geometricPrecision" shape-rendering="geometricPrecision" transform="matrix(1,0,0,1,-288,-104)" stroke="rgb(253,238,218)">
      <rect x="927.1738" width="100" height="38.377" y="238.3926" clip-path="url(#clipPath2)" stroke="none"/>
    </g>
    <g font-size="20px" stroke-linecap="butt" transform="matrix(1,0,0,1,-288,-104)" text-rendering="geometricPrecision" font-family="'Roboto Condensed'" shape-rendering="geometricPrecision" stroke-miterlimit="1.45">
      <text x="944.4541" xml:space="preserve" y="265.3496" clip-path="url(#clipPath2)" stroke="none">#fdeeda</text>
    </g>
    <g fill="rgb(247,227,240)" text-rendering="geometricPrecision" shape-rendering="geometricPrecision" transform="matrix(1,0,0,1,-288,-104)" stroke="rgb(247,227,240)">
      <rect x="927.1738" width="100" height="38.377" y="556.2773" clip-path="url(#clipPath2)" stroke="none"/>
    </g>
    <g font-size="20px" stroke-linecap="butt" transform="matrix(1,0,0,1,-288,-104)" text-rendering="geometricPrecision" font-family="'Roboto Condensed'" shape-rendering="geometricPrecision" stroke-miterlimit="1.45">
      <text x="945.875" xml:space="preserve" y="583.2344" clip-path="url(#clipPath2)" stroke="none">#f7e3f0</text>
    </g>
    <g fill="rgb(251,224,222)" text-rendering="geometricPrecision" shape-rendering="geometricPrecision" transform="matrix(1,0,0,1,-288,-104)" stroke="rgb(251,224,222)">
      <rect x="927.1738" width="100" height="38.377" y="363.1465" clip-path="url(#clipPath2)" stroke="none"/>
    </g>
    <g font-size="20px" stroke-linecap="butt" transform="matrix(1,0,0,1,-288,-104)" text-rendering="geometricPrecision" font-family="'Roboto Condensed'" shape-rendering="geometricPrecision" stroke-miterlimit="1.45">
      <text x="944.3369" xml:space="preserve" y="390.1035" clip-path="url(#clipPath2)" stroke="none">#fbe0de</text>
    </g>
    <g fill="rgb(253,246,217)" text-rendering="geometricPrecision" shape-rendering="geometricPrecision" transform="matrix(1,0,0,1,-288,-104)" stroke="rgb(253,246,217)">
      <rect x="927.1738" width="100" height="38.377" y="427.5234" clip-path="url(#clipPath2)" stroke="none"/>
    </g>
    <g font-size="20px" stroke-linecap="butt" transform="matrix(1,0,0,1,-288,-104)" text-rendering="geometricPrecision" font-family="'Roboto Condensed'" shape-rendering="geometricPrecision" stroke-miterlimit="1.45">
      <text x="945.5723" xml:space="preserve" y="454.4805" clip-path="url(#clipPath2)" stroke="none">#fdf6d9</text>
    </g>
    <g fill="rgb(234,248,244)" text-rendering="geometricPrecision" shape-rendering="geometricPrecision" transform="matrix(1,0,0,1,-288,-104)" stroke="rgb(234,248,244)">
      <rect x="927.1738" width="100" height="38.377" y="620.6543" clip-path="url(#clipPath2)" stroke="none"/>
    </g>
    <g font-size="20px" stroke-linecap="butt" transform="matrix(1,0,0,1,-288,-104)" text-rendering="geometricPrecision" font-family="'Roboto Condensed'" shape-rendering="geometricPrecision" stroke-miterlimit="1.45">
      <text x="946.0215" xml:space="preserve" y="647.6113" clip-path="url(#clipPath2)" stroke="none">#eaf8f4</text>
    </g>
    <g fill="white" text-rendering="geometricPrecision" shape-rendering="geometricPrecision" transform="matrix(1,0,0,1,-288,-104)" stroke="white">
      <rect x="667.1738" width="100" height="38.377" y="105.6387" clip-path="url(#clipPath2)" stroke="none"/>
    </g>
    <g text-rendering="geometricPrecision" stroke-miterlimit="1.45" shape-rendering="geometricPrecision" transform="matrix(1,0,0,1,-288,-104)" stroke-linecap="butt">
      <rect fill="none" x="667.1738" width="100" height="38.377" y="105.6387" clip-path="url(#clipPath2)"/>
      <text x="699.874" font-size="20px" y="132.5957" clip-path="url(#clipPath2)" font-family="'Roboto Condensed'" stroke="none" xml:space="preserve">dark</text>
    </g>
    <g fill="white" text-rendering="geometricPrecision" shape-rendering="geometricPrecision" transform="matrix(1,0,0,1,-288,-104)" stroke="white">
      <rect x="797.1738" width="100" height="38.377" y="105.6387" clip-path="url(#clipPath2)" stroke="none"/>
    </g>
    <g text-rendering="geometricPrecision" stroke-miterlimit="1.45" shape-rendering="geometricPrecision" transform="matrix(1,0,0,1,-288,-104)" stroke-linecap="butt">
      <rect fill="none" x="797.1738" width="100" height="38.377" y="105.6387" clip-path="url(#clipPath2)"/>
      <text x="829.8838" font-size="20px" y="132.5957" clip-path="url(#clipPath2)" font-family="'Roboto Condensed'" stroke="none" xml:space="preserve">light</text>
    </g>
    <g fill="white" text-rendering="geometricPrecision" shape-rendering="geometricPrecision" transform="matrix(1,0,0,1,-288,-104)" stroke="white">
      <rect x="927.1738" width="100" height="38.377" y="105.6387" clip-path="url(#clipPath2)" stroke="none"/>
    </g>
    <g text-rendering="geometricPrecision" stroke-miterlimit="1.45" shape-rendering="geometricPrecision" transform="matrix(1,0,0,1,-288,-104)" stroke-linecap="butt">
      <rect fill="none" x="927.1738" width="100" height="38.377" y="105.6387" clip-path="url(#clipPath2)"/>
      <text x="943.0088" font-size="20px" y="132.5957" clip-path="url(#clipPath2)" font-family="'Roboto Condensed'" stroke="none" xml:space="preserve">highlight</text>
    </g>
  </g>
</svg>
