<?xml version="1.0" encoding="UTF-8"?><svg xmlns="http://www.w3.org/2000/svg" xmlns:xlink="http://www.w3.org/1999/xlink" fill-opacity="1" color-rendering="auto" color-interpolation="auto" text-rendering="auto" stroke="black" stroke-linecap="square" width="871" stroke-miterlimit="10" shape-rendering="auto" stroke-opacity="1" fill="black" stroke-dasharray="none" font-weight="normal" stroke-width="1" height="761" font-family="'Dialog'" font-style="normal" stroke-linejoin="miter" font-size="12px" stroke-dashoffset="0" image-rendering="auto">
  <!--Generated by ySVG 2.5-->
  <defs id="genericDefs"/>
  <g>
    <defs id="defs1">
      <clipPath clipPathUnits="userSpaceOnUse" id="clipPath1">
        <path d="M0 0 L871 0 L871 761 L0 761 L0 0 Z"/>
      </clipPath>
      <clipPath clipPathUnits="userSpaceOnUse" id="clipPath2">
        <path d="M262 79 L1133 79 L1133 840 L262 840 L262 79 Z"/>
      </clipPath>
    </defs>
    <g fill="white" text-rendering="geometricPrecision" shape-rendering="geometricPrecision" transform="translate(-262,-79)" stroke="white">
      <rect x="262" width="871" height="761" y="79" clip-path="url(#clipPath2)" stroke="none"/>
    </g>
    <g fill="rgb(24,176,226)" text-rendering="geometricPrecision" shape-rendering="geometricPrecision" transform="matrix(1,0,0,1,-262,-79)" stroke="rgb(24,176,226)">
      <rect x="263.5869" width="100" height="38.377" y="209.0732" clip-path="url(#clipPath2)" stroke="none"/>
    </g>
    <g stroke-linecap="butt" font-size="20px" transform="matrix(1,0,0,1,-262,-79)" fill="white" text-rendering="geometricPrecision" font-family="'Roboto Condensed'" shape-rendering="geometricPrecision" stroke="white" stroke-miterlimit="1.45">
      <text x="278.748" xml:space="preserve" y="236.0303" clip-path="url(#clipPath2)" stroke="none">#18b0e2</text>
    </g>
    <g fill="rgb(199,201,199)" text-rendering="geometricPrecision" shape-rendering="geometricPrecision" transform="matrix(1,0,0,1,-262,-79)" stroke="rgb(199,201,199)">
      <rect x="263.5869" width="100" height="38.377" y="273.4502" clip-path="url(#clipPath2)" stroke="none"/>
    </g>
    <g font-size="20px" stroke-linecap="butt" transform="matrix(1,0,0,1,-262,-79)" text-rendering="geometricPrecision" font-family="'Roboto Condensed'" shape-rendering="geometricPrecision" stroke-miterlimit="1.45">
      <text x="279.4414" xml:space="preserve" y="300.4072" clip-path="url(#clipPath2)" stroke="none">#c7c9c7</text>
    </g>
    <g fill="rgb(0,32,91)" text-rendering="geometricPrecision" shape-rendering="geometricPrecision" transform="matrix(1,0,0,1,-262,-79)" stroke="rgb(0,32,91)">
      <rect x="263.5869" width="100" height="38.377" y="144.6963" clip-path="url(#clipPath2)" stroke="none"/>
    </g>
    <g stroke-linecap="butt" font-size="20px" transform="matrix(1,0,0,1,-262,-79)" fill="white" text-rendering="geometricPrecision" font-family="'Roboto Condensed'" shape-rendering="geometricPrecision" stroke="white" stroke-miterlimit="1.45">
      <text x="278.4941" xml:space="preserve" y="171.6533" clip-path="url(#clipPath2)" stroke="none">#00205b</text>
    </g>
    <g fill="white" text-rendering="geometricPrecision" shape-rendering="geometricPrecision" transform="matrix(1,0,0,1,-262,-79)" stroke="white">
      <rect x="263.5869" width="350" height="38.377" y="80.3193" clip-path="url(#clipPath2)" stroke="none"/>
    </g>
    <g text-rendering="geometricPrecision" stroke-miterlimit="1.45" shape-rendering="geometricPrecision" transform="matrix(1,0,0,1,-262,-79)" stroke-linecap="butt">
      <rect fill="none" x="263.5869" width="350" height="38.377" y="80.3193" clip-path="url(#clipPath2)"/>
      <text x="408.1133" font-size="20px" y="107.2764" clip-path="url(#clipPath2)" font-family="'Roboto Condensed'" stroke="none" xml:space="preserve">Original</text>
    </g>
    <g fill="rgb(85,85,85)" text-rendering="geometricPrecision" shape-rendering="geometricPrecision" transform="matrix(1,0,0,1,-262,-79)" stroke="rgb(85,85,85)">
      <rect x="263.5869" width="100" height="38.377" y="337.8271" clip-path="url(#clipPath2)" stroke="none"/>
    </g>
    <g stroke-linecap="butt" font-size="20px" transform="matrix(1,0,0,1,-262,-79)" fill="white" text-rendering="geometricPrecision" font-family="'Roboto Condensed'" shape-rendering="geometricPrecision" stroke="white" stroke-miterlimit="1.45">
      <text x="278.4893" xml:space="preserve" y="364.7842" clip-path="url(#clipPath2)" stroke="none">#555555</text>
    </g>
    <g fill="rgb(0,126,185)" text-rendering="geometricPrecision" shape-rendering="geometricPrecision" transform="matrix(1,0,0,1,-262,-79)" stroke="rgb(0,126,185)">
      <rect x="389.5869" width="100" height="38.377" y="209.0732" clip-path="url(#clipPath2)" stroke="none"/>
    </g>
    <g stroke-linecap="butt" font-size="20px" transform="matrix(1,0,0,1,-262,-79)" fill="white" text-rendering="geometricPrecision" font-family="'Roboto Condensed'" shape-rendering="geometricPrecision" stroke="white" stroke-miterlimit="1.45">
      <text x="404.748" xml:space="preserve" y="236.0303" clip-path="url(#clipPath2)" stroke="none">#007eb9</text>
    </g>
    <g fill="rgb(164,196,36)" text-rendering="geometricPrecision" shape-rendering="geometricPrecision" transform="matrix(1,0,0,1,-262,-79)" stroke="rgb(164,196,36)">
      <rect x="389.5869" width="100" height="38.377" y="273.4502" clip-path="url(#clipPath2)" stroke="none"/>
    </g>
    <g font-size="20px" stroke-linecap="butt" transform="matrix(1,0,0,1,-262,-79)" text-rendering="geometricPrecision" font-family="'Roboto Condensed'" shape-rendering="geometricPrecision" stroke-miterlimit="1.45">
      <text x="404.9531" xml:space="preserve" y="300.4072" clip-path="url(#clipPath2)" stroke="none">#a4c424</text>
    </g>
    <g fill="rgb(215,51,103)" text-rendering="geometricPrecision" shape-rendering="geometricPrecision" transform="matrix(1,0,0,1,-262,-79)" stroke="rgb(215,51,103)">
      <rect x="389.5869" width="100" height="38.377" y="144.6963" clip-path="url(#clipPath2)" stroke="none"/>
    </g>
    <g stroke-linecap="butt" font-size="20px" transform="matrix(1,0,0,1,-262,-79)" fill="white" text-rendering="geometricPrecision" font-family="'Roboto Condensed'" shape-rendering="geometricPrecision" stroke="white" stroke-miterlimit="1.45">
      <text x="404.4648" xml:space="preserve" y="171.6533" clip-path="url(#clipPath2)" stroke="none">#d73367</text>
    </g>
    <g fill="rgb(242,149,18)" text-rendering="geometricPrecision" shape-rendering="geometricPrecision" transform="matrix(1,0,0,1,-262,-79)" stroke="rgb(242,149,18)">
      <rect x="389.5869" width="100" height="38.377" y="337.8271" clip-path="url(#clipPath2)" stroke="none"/>
    </g>
    <g font-size="20px" stroke-linecap="butt" transform="matrix(1,0,0,1,-262,-79)" text-rendering="geometricPrecision" font-family="'Roboto Condensed'" shape-rendering="geometricPrecision" stroke-miterlimit="1.45">
      <text x="406.2617" xml:space="preserve" y="364.7842" clip-path="url(#clipPath2)" stroke="none">#f29512</text>
    </g>
    <g fill="rgb(169,57,131)" text-rendering="geometricPrecision" shape-rendering="geometricPrecision" transform="matrix(1,0,0,1,-262,-79)" stroke="rgb(169,57,131)">
      <rect x="389.5869" width="100" height="38.377" y="402.2041" clip-path="url(#clipPath2)" stroke="none"/>
    </g>
    <g stroke-linecap="butt" font-size="20px" transform="matrix(1,0,0,1,-262,-79)" fill="white" text-rendering="geometricPrecision" font-family="'Roboto Condensed'" shape-rendering="geometricPrecision" stroke="white" stroke-miterlimit="1.45">
      <text x="404.6357" xml:space="preserve" y="429.1611" clip-path="url(#clipPath2)" stroke="none">#a93983</text>
    </g>
    <g fill="rgb(198,53,39)" text-rendering="geometricPrecision" shape-rendering="geometricPrecision" transform="matrix(1,0,0,1,-262,-79)" stroke="rgb(198,53,39)">
      <rect x="515.5869" width="100" height="38.377" y="209.0732" clip-path="url(#clipPath2)" stroke="none"/>
    </g>
    <g stroke-linecap="butt" font-size="20px" transform="matrix(1,0,0,1,-262,-79)" fill="white" text-rendering="geometricPrecision" font-family="'Roboto Condensed'" shape-rendering="geometricPrecision" stroke="white" stroke-miterlimit="1.45">
      <text x="530.8066" xml:space="preserve" y="236.0303" clip-path="url(#clipPath2)" stroke="none">#c63527</text>
    </g>
    <g fill="rgb(255,198,0)" text-rendering="geometricPrecision" shape-rendering="geometricPrecision" transform="matrix(1,0,0,1,-262,-79)" stroke="rgb(255,198,0)">
      <rect x="515.5869" width="100" height="38.377" y="144.6963" clip-path="url(#clipPath2)" stroke="none"/>
    </g>
    <g font-size="20px" stroke-linecap="butt" transform="matrix(1,0,0,1,-262,-79)" text-rendering="geometricPrecision" font-family="'Roboto Condensed'" shape-rendering="geometricPrecision" stroke-miterlimit="1.45">
      <text x="534.3516" xml:space="preserve" y="171.6533" clip-path="url(#clipPath2)" stroke="none">#ffc600</text>
    </g>
    <g fill="rgb(0,155,119)" text-rendering="geometricPrecision" shape-rendering="geometricPrecision" transform="matrix(1,0,0,1,-262,-79)" stroke="rgb(0,155,119)">
      <rect x="515.5869" width="100" height="38.377" y="273.4502" clip-path="url(#clipPath2)" stroke="none"/>
    </g>
    <g stroke-linecap="butt" font-size="20px" transform="matrix(1,0,0,1,-262,-79)" fill="white" text-rendering="geometricPrecision" font-family="'Roboto Condensed'" shape-rendering="geometricPrecision" stroke="white" stroke-miterlimit="1.45">
      <text x="530.4941" xml:space="preserve" y="300.4072" clip-path="url(#clipPath2)" stroke="none">#009b77</text>
    </g>
    <g fill="rgb(123,196,220)" text-rendering="geometricPrecision" shape-rendering="geometricPrecision" transform="matrix(1,0,0,1,-262,-79)" stroke="rgb(123,196,220)">
      <rect x="641.5869" y="196.0732" clip-path="url(#clipPath2)" width="100" rx="4" ry="4" height="38.377" stroke="none"/>
    </g>
    <g text-rendering="geometricPrecision" stroke-miterlimit="1.45" shape-rendering="geometricPrecision" transform="matrix(1,0,0,1,-262,-79)" stroke-linecap="butt">
      <rect x="641.5869" y="196.0732" clip-path="url(#clipPath2)" fill="none" width="100" rx="4" ry="4" height="38.377"/>
      <text x="657.1045" font-size="20px" y="223.0303" clip-path="url(#clipPath2)" font-family="'Roboto Condensed'" stroke="none" xml:space="preserve">#7bc4dc</text>
    </g>
    <g fill="rgb(199,201,199)" text-rendering="geometricPrecision" shape-rendering="geometricPrecision" transform="matrix(1,0,0,1,-262,-79)" stroke="rgb(199,201,199)">
      <rect x="641.5869" y="247.4502" clip-path="url(#clipPath2)" width="100" rx="4" ry="4" height="38.377" stroke="none"/>
    </g>
    <g text-rendering="geometricPrecision" stroke-miterlimit="1.45" shape-rendering="geometricPrecision" transform="matrix(1,0,0,1,-262,-79)" stroke-linecap="butt">
      <rect x="641.5869" y="247.4502" clip-path="url(#clipPath2)" fill="none" width="100" rx="4" ry="4" height="38.377"/>
      <text x="657.4414" font-size="20px" y="274.4072" clip-path="url(#clipPath2)" font-family="'Roboto Condensed'" stroke="none" xml:space="preserve">#c7c9c7</text>
    </g>
    <g fill="rgb(184,211,75)" text-rendering="geometricPrecision" shape-rendering="geometricPrecision" transform="matrix(1,0,0,1,-262,-79)" stroke="rgb(184,211,75)">
      <rect x="641.5869" y="414.8926" clip-path="url(#clipPath2)" width="100" rx="4" ry="4" height="38.377" stroke="none"/>
    </g>
    <g text-rendering="geometricPrecision" stroke-miterlimit="1.45" shape-rendering="geometricPrecision" transform="matrix(1,0,0,1,-262,-79)" stroke-linecap="butt">
      <rect x="641.5869" y="414.8926" clip-path="url(#clipPath2)" fill="none" width="100" rx="4" ry="4" height="38.377"/>
      <text x="656.4746" font-size="20px" y="441.8496" clip-path="url(#clipPath2)" font-family="'Roboto Condensed'" stroke="none" xml:space="preserve">#b8d34b</text>
    </g>
    <g fill="rgb(243,171,69)" text-rendering="geometricPrecision" shape-rendering="geometricPrecision" transform="matrix(1,0,0,1,-262,-79)" stroke="rgb(243,171,69)">
      <rect x="641.5869" y="466.2695" clip-path="url(#clipPath2)" width="100" rx="4" ry="4" height="38.377" stroke="none"/>
    </g>
    <g text-rendering="geometricPrecision" stroke-miterlimit="1.45" shape-rendering="geometricPrecision" transform="matrix(1,0,0,1,-262,-79)" stroke-linecap="butt">
      <rect x="641.5869" y="466.2695" clip-path="url(#clipPath2)" fill="none" width="100" rx="4" ry="4" height="38.377"/>
      <text x="658.4131" font-size="20px" y="493.2266" clip-path="url(#clipPath2)" font-family="'Roboto Condensed'" stroke="none" xml:space="preserve">#f3ab45</text>
    </g>
    <g fill="rgb(217,113,182)" text-rendering="geometricPrecision" shape-rendering="geometricPrecision" transform="matrix(1,0,0,1,-262,-79)" stroke="rgb(217,113,182)">
      <rect x="641.5869" y="517.6465" clip-path="url(#clipPath2)" width="100" rx="4" ry="4" height="38.377" stroke="none"/>
    </g>
    <g text-rendering="geometricPrecision" stroke-miterlimit="1.45" shape-rendering="geometricPrecision" transform="matrix(1,0,0,1,-262,-79)" stroke-linecap="butt">
      <rect x="641.5869" y="517.6465" clip-path="url(#clipPath2)" fill="none" width="100" rx="4" ry="4" height="38.377"/>
      <text x="656.4697" font-size="20px" y="544.6035" clip-path="url(#clipPath2)" font-family="'Roboto Condensed'" stroke="none" xml:space="preserve">#d971b6</text>
    </g>
    <g fill="rgb(233,115,105)" text-rendering="geometricPrecision" shape-rendering="geometricPrecision" transform="matrix(1,0,0,1,-262,-79)" stroke="rgb(233,115,105)">
      <rect x="641.5869" y="633.4004" clip-path="url(#clipPath2)" width="100" rx="4" ry="4" height="38.377" stroke="none"/>
    </g>
    <g text-rendering="geometricPrecision" stroke-miterlimit="1.45" shape-rendering="geometricPrecision" transform="matrix(1,0,0,1,-262,-79)" stroke-linecap="butt">
      <rect x="641.5869" y="633.4004" clip-path="url(#clipPath2)" fill="none" width="100" rx="4" ry="4" height="38.377"/>
      <text x="656.7432" font-size="20px" y="660.3574" clip-path="url(#clipPath2)" font-family="'Roboto Condensed'" stroke="none" xml:space="preserve">#e97369</text>
    </g>
    <g fill="rgb(247,208,63)" text-rendering="geometricPrecision" shape-rendering="geometricPrecision" transform="matrix(1,0,0,1,-262,-79)" stroke="rgb(247,208,63)">
      <rect x="641.5869" y="582.0234" clip-path="url(#clipPath2)" width="100" rx="4" ry="4" height="38.377" stroke="none"/>
    </g>
    <g text-rendering="geometricPrecision" stroke-miterlimit="1.45" shape-rendering="geometricPrecision" transform="matrix(1,0,0,1,-262,-79)" stroke-linecap="butt">
      <rect x="641.5869" y="582.0234" clip-path="url(#clipPath2)" fill="none" width="100" rx="4" ry="4" height="38.377"/>
      <text x="660.0098" font-size="20px" y="608.9805" clip-path="url(#clipPath2)" font-family="'Roboto Condensed'" stroke="none" xml:space="preserve">#f7d03f</text>
    </g>
    <g fill="rgb(148,218,202)" text-rendering="geometricPrecision" shape-rendering="geometricPrecision" transform="matrix(1,0,0,1,-262,-79)" stroke="rgb(148,218,202)">
      <rect x="641.5869" y="684.7773" clip-path="url(#clipPath2)" width="100" rx="4" ry="4" height="38.377" stroke="none"/>
    </g>
    <g text-rendering="geometricPrecision" stroke-miterlimit="1.45" shape-rendering="geometricPrecision" transform="matrix(1,0,0,1,-262,-79)" stroke-linecap="butt">
      <rect x="641.5869" y="684.7773" clip-path="url(#clipPath2)" fill="none" width="100" rx="4" ry="4" height="38.377"/>
      <text x="657.0752" font-size="20px" y="711.7344" clip-path="url(#clipPath2)" font-family="'Roboto Condensed'" stroke="none" xml:space="preserve">#94daca</text>
    </g>
    <g fill="rgb(169,216,232)" text-rendering="geometricPrecision" shape-rendering="geometricPrecision" transform="matrix(1,0,0,1,-262,-79)" stroke="rgb(169,216,232)">
      <rect x="771.5869" y="196.0732" clip-path="url(#clipPath2)" width="100" rx="4" ry="4" height="38.377" stroke="none"/>
    </g>
    <g text-rendering="geometricPrecision" stroke-miterlimit="1.45" shape-rendering="geometricPrecision" transform="matrix(1,0,0,1,-262,-79)" stroke-linecap="butt">
      <rect x="771.5869" y="196.0732" clip-path="url(#clipPath2)" fill="none" width="100" rx="4" ry="4" height="38.377"/>
      <text x="786.8652" font-size="20px" y="223.0303" clip-path="url(#clipPath2)" font-family="'Roboto Condensed'" stroke="none" xml:space="preserve">#a9d8e8</text>
    </g>
    <g fill="rgb(219,220,219)" text-rendering="geometricPrecision" shape-rendering="geometricPrecision" transform="matrix(1,0,0,1,-262,-79)" stroke="rgb(219,220,219)">
      <rect x="771.5869" y="247.4502" clip-path="url(#clipPath2)" width="100" rx="4" ry="4" height="38.377" stroke="none"/>
    </g>
    <g text-rendering="geometricPrecision" stroke-miterlimit="1.45" shape-rendering="geometricPrecision" transform="matrix(1,0,0,1,-262,-79)" stroke-linecap="butt">
      <rect x="771.5869" y="247.4502" clip-path="url(#clipPath2)" fill="none" width="100" rx="4" ry="4" height="38.377"/>
      <text x="786.7432" font-size="20px" y="274.4072" clip-path="url(#clipPath2)" font-family="'Roboto Condensed'" stroke="none" xml:space="preserve">#dbdcdb</text>
    </g>
    <g fill="rgb(209,226,138)" text-rendering="geometricPrecision" shape-rendering="geometricPrecision" transform="matrix(1,0,0,1,-262,-79)" stroke="rgb(209,226,138)">
      <rect x="771.5869" y="414.8926" clip-path="url(#clipPath2)" width="100" rx="4" ry="4" height="38.377" stroke="none"/>
    </g>
    <g text-rendering="geometricPrecision" stroke-miterlimit="1.45" shape-rendering="geometricPrecision" transform="matrix(1,0,0,1,-262,-79)" stroke-linecap="butt">
      <rect x="771.5869" y="414.8926" clip-path="url(#clipPath2)" fill="none" width="100" rx="4" ry="4" height="38.377"/>
      <text x="786.8652" font-size="20px" y="441.8496" clip-path="url(#clipPath2)" font-family="'Roboto Condensed'" stroke="none" xml:space="preserve">#d1e28a</text>
    </g>
    <g fill="rgb(247,200,134)" text-rendering="geometricPrecision" shape-rendering="geometricPrecision" transform="matrix(1,0,0,1,-262,-79)" stroke="rgb(247,200,134)">
      <rect x="771.5869" y="466.2695" clip-path="url(#clipPath2)" width="100" rx="4" ry="4" height="38.377" stroke="none"/>
    </g>
    <g text-rendering="geometricPrecision" stroke-miterlimit="1.45" shape-rendering="geometricPrecision" transform="matrix(1,0,0,1,-262,-79)" stroke-linecap="butt">
      <rect x="771.5869" y="466.2695" clip-path="url(#clipPath2)" fill="none" width="100" rx="4" ry="4" height="38.377"/>
      <text x="788.5791" font-size="20px" y="493.2266" clip-path="url(#clipPath2)" font-family="'Roboto Condensed'" stroke="none" xml:space="preserve">#f7c886</text>
    </g>
    <g fill="rgb(230,163,208)" text-rendering="geometricPrecision" shape-rendering="geometricPrecision" transform="matrix(1,0,0,1,-262,-79)" stroke="rgb(230,163,208)">
      <rect x="771.5869" y="517.6465" clip-path="url(#clipPath2)" width="100" rx="4" ry="4" height="38.377" stroke="none"/>
    </g>
    <g text-rendering="geometricPrecision" stroke-miterlimit="1.45" shape-rendering="geometricPrecision" transform="matrix(1,0,0,1,-262,-79)" stroke-linecap="butt">
      <rect x="771.5869" y="517.6465" clip-path="url(#clipPath2)" fill="none" width="100" rx="4" ry="4" height="38.377"/>
      <text x="786.8652" font-size="20px" y="544.6035" clip-path="url(#clipPath2)" font-family="'Roboto Condensed'" stroke="none" xml:space="preserve">#e6a3d0</text>
    </g>
    <g fill="rgb(241,164,157)" text-rendering="geometricPrecision" shape-rendering="geometricPrecision" transform="matrix(1,0,0,1,-262,-79)" stroke="rgb(241,164,157)">
      <rect x="771.5869" y="633.4004" clip-path="url(#clipPath2)" width="100" rx="4" ry="4" height="38.377" stroke="none"/>
    </g>
    <g text-rendering="geometricPrecision" stroke-miterlimit="1.45" shape-rendering="geometricPrecision" transform="matrix(1,0,0,1,-262,-79)" stroke-linecap="butt">
      <rect x="771.5869" y="633.4004" clip-path="url(#clipPath2)" fill="none" width="100" rx="4" ry="4" height="38.377"/>
      <text x="788.3838" font-size="20px" y="660.3574" clip-path="url(#clipPath2)" font-family="'Roboto Condensed'" stroke="none" xml:space="preserve">#f1a49d</text>
    </g>
    <g fill="rgb(250,224,130)" text-rendering="geometricPrecision" shape-rendering="geometricPrecision" transform="matrix(1,0,0,1,-262,-79)" stroke="rgb(250,224,130)">
      <rect x="771.5869" y="582.0234" clip-path="url(#clipPath2)" width="100" rx="4" ry="4" height="38.377" stroke="none"/>
    </g>
    <g text-rendering="geometricPrecision" stroke-miterlimit="1.45" shape-rendering="geometricPrecision" transform="matrix(1,0,0,1,-262,-79)" stroke-linecap="butt">
      <rect x="771.5869" y="582.0234" clip-path="url(#clipPath2)" fill="none" width="100" rx="4" ry="4" height="38.377"/>
      <text x="788.6621" font-size="20px" y="608.9805" clip-path="url(#clipPath2)" font-family="'Roboto Condensed'" stroke="none" xml:space="preserve">#fae082</text>
    </g>
    <g fill="rgb(185,231,220)" text-rendering="geometricPrecision" shape-rendering="geometricPrecision" transform="matrix(1,0,0,1,-262,-79)" stroke="rgb(185,231,220)">
      <rect x="771.5869" y="684.7773" clip-path="url(#clipPath2)" width="100" rx="4" ry="4" height="38.377" stroke="none"/>
    </g>
    <g text-rendering="geometricPrecision" stroke-miterlimit="1.45" shape-rendering="geometricPrecision" transform="matrix(1,0,0,1,-262,-79)" stroke-linecap="butt">
      <rect x="771.5869" y="684.7773" clip-path="url(#clipPath2)" fill="none" width="100" rx="4" ry="4" height="38.377"/>
      <text x="787.041" font-size="20px" y="711.7344" clip-path="url(#clipPath2)" font-family="'Roboto Condensed'" stroke="none" xml:space="preserve">#b9e7dc</text>
    </g>
    <g fill="rgb(229,243,248)" text-rendering="geometricPrecision" shape-rendering="geometricPrecision" transform="matrix(1,0,0,1,-262,-79)" stroke="rgb(229,243,248)">
      <rect x="901.5869" width="100" height="38.377" y="196.0732" clip-path="url(#clipPath2)" stroke="none"/>
    </g>
    <g font-size="20px" stroke-linecap="butt" transform="matrix(1,0,0,1,-262,-79)" text-rendering="geometricPrecision" font-family="'Roboto Condensed'" shape-rendering="geometricPrecision" stroke-miterlimit="1.45">
      <text x="920.2881" xml:space="preserve" y="223.0303" clip-path="url(#clipPath2)" stroke="none">#e5f3f8</text>
    </g>
    <g fill="rgb(244,244,244)" text-rendering="geometricPrecision" shape-rendering="geometricPrecision" transform="matrix(1,0,0,1,-262,-79)" stroke="rgb(244,244,244)">
      <rect x="901.5869" width="100" height="38.377" y="247.4502" clip-path="url(#clipPath2)" stroke="none"/>
    </g>
    <g font-size="20px" stroke-linecap="butt" transform="matrix(1,0,0,1,-262,-79)" text-rendering="geometricPrecision" font-family="'Roboto Condensed'" shape-rendering="geometricPrecision" stroke-miterlimit="1.45">
      <text x="921.8066" xml:space="preserve" y="274.4072" clip-path="url(#clipPath2)" stroke="none">#f4f4f4</text>
    </g>
    <g fill="rgb(241,246,219)" text-rendering="geometricPrecision" shape-rendering="geometricPrecision" transform="matrix(1,0,0,1,-262,-79)" stroke="rgb(241,246,219)">
      <rect x="901.5869" width="100" height="38.377" y="414.8926" clip-path="url(#clipPath2)" stroke="none"/>
    </g>
    <g font-size="20px" stroke-linecap="butt" transform="matrix(1,0,0,1,-262,-79)" text-rendering="geometricPrecision" font-family="'Roboto Condensed'" shape-rendering="geometricPrecision" stroke-miterlimit="1.45">
      <text x="920.0146" xml:space="preserve" y="441.8496" clip-path="url(#clipPath2)" stroke="none">#f1f6db</text>
    </g>
    <g fill="rgb(253,238,218)" text-rendering="geometricPrecision" shape-rendering="geometricPrecision" transform="matrix(1,0,0,1,-262,-79)" stroke="rgb(253,238,218)">
      <rect x="901.5869" width="100" height="38.377" y="466.2695" clip-path="url(#clipPath2)" stroke="none"/>
    </g>
    <g font-size="20px" stroke-linecap="butt" transform="matrix(1,0,0,1,-262,-79)" text-rendering="geometricPrecision" font-family="'Roboto Condensed'" shape-rendering="geometricPrecision" stroke-miterlimit="1.45">
      <text x="918.8672" xml:space="preserve" y="493.2266" clip-path="url(#clipPath2)" stroke="none">#fdeeda</text>
    </g>
    <g fill="rgb(247,227,240)" text-rendering="geometricPrecision" shape-rendering="geometricPrecision" transform="matrix(1,0,0,1,-262,-79)" stroke="rgb(247,227,240)">
      <rect x="901.5869" width="100" height="38.377" y="517.6465" clip-path="url(#clipPath2)" stroke="none"/>
    </g>
    <g font-size="20px" stroke-linecap="butt" transform="matrix(1,0,0,1,-262,-79)" text-rendering="geometricPrecision" font-family="'Roboto Condensed'" shape-rendering="geometricPrecision" stroke-miterlimit="1.45">
      <text x="920.2881" xml:space="preserve" y="544.6035" clip-path="url(#clipPath2)" stroke="none">#f7e3f0</text>
    </g>
    <g fill="rgb(251,227,225)" text-rendering="geometricPrecision" shape-rendering="geometricPrecision" transform="matrix(1,0,0,1,-262,-79)" stroke="rgb(251,227,225)">
      <rect x="901.5869" width="100" height="38.377" y="633.4004" clip-path="url(#clipPath2)" stroke="none"/>
    </g>
    <g font-size="20px" stroke-linecap="butt" transform="matrix(1,0,0,1,-262,-79)" text-rendering="geometricPrecision" font-family="'Roboto Condensed'" shape-rendering="geometricPrecision" stroke-miterlimit="1.45">
      <text x="918.7744" xml:space="preserve" y="660.3574" clip-path="url(#clipPath2)" stroke="none">#fbe3e1</text>
    </g>
    <g fill="rgb(253,246,217)" text-rendering="geometricPrecision" shape-rendering="geometricPrecision" transform="matrix(1,0,0,1,-262,-79)" stroke="rgb(253,246,217)">
      <rect x="901.5869" width="100" height="38.377" y="582.0234" clip-path="url(#clipPath2)" stroke="none"/>
    </g>
    <g font-size="20px" stroke-linecap="butt" transform="matrix(1,0,0,1,-262,-79)" text-rendering="geometricPrecision" font-family="'Roboto Condensed'" shape-rendering="geometricPrecision" stroke-miterlimit="1.45">
      <text x="919.9854" xml:space="preserve" y="608.9805" clip-path="url(#clipPath2)" stroke="none">#fdf6d9</text>
    </g>
    <g fill="rgb(234,248,244)" text-rendering="geometricPrecision" shape-rendering="geometricPrecision" transform="matrix(1,0,0,1,-262,-79)" stroke="rgb(234,248,244)">
      <rect x="901.5869" width="100" height="38.377" y="684.7773" clip-path="url(#clipPath2)" stroke="none"/>
    </g>
    <g font-size="20px" stroke-linecap="butt" transform="matrix(1,0,0,1,-262,-79)" text-rendering="geometricPrecision" font-family="'Roboto Condensed'" shape-rendering="geometricPrecision" stroke-miterlimit="1.45">
      <text x="920.4346" xml:space="preserve" y="711.7344" clip-path="url(#clipPath2)" stroke="none">#eaf8f4</text>
    </g>
    <g fill="white" text-rendering="geometricPrecision" shape-rendering="geometricPrecision" transform="matrix(1,0,0,1,-262,-79)" stroke="white">
      <rect x="641.5869" width="100" height="38.377" y="80.3193" clip-path="url(#clipPath2)" stroke="none"/>
    </g>
    <g text-rendering="geometricPrecision" stroke-miterlimit="1.45" shape-rendering="geometricPrecision" transform="matrix(1,0,0,1,-262,-79)" stroke-linecap="butt">
      <rect fill="none" x="641.5869" width="100" height="38.377" y="80.3193" clip-path="url(#clipPath2)"/>
      <text x="674.2871" font-size="20px" y="107.2764" clip-path="url(#clipPath2)" font-family="'Roboto Condensed'" stroke="none" xml:space="preserve">dark</text>
    </g>
    <g fill="white" text-rendering="geometricPrecision" shape-rendering="geometricPrecision" transform="matrix(1,0,0,1,-262,-79)" stroke="white">
      <rect x="771.5869" width="100" height="38.377" y="80.3193" clip-path="url(#clipPath2)" stroke="none"/>
    </g>
    <g text-rendering="geometricPrecision" stroke-miterlimit="1.45" shape-rendering="geometricPrecision" transform="matrix(1,0,0,1,-262,-79)" stroke-linecap="butt">
      <rect fill="none" x="771.5869" width="100" height="38.377" y="80.3193" clip-path="url(#clipPath2)"/>
      <text x="804.2969" font-size="20px" y="107.2764" clip-path="url(#clipPath2)" font-family="'Roboto Condensed'" stroke="none" xml:space="preserve">light</text>
    </g>
    <g fill="white" text-rendering="geometricPrecision" shape-rendering="geometricPrecision" transform="matrix(1,0,0,1,-262,-79)" stroke="white">
      <rect x="901.5869" width="100" height="38.377" y="80.3193" clip-path="url(#clipPath2)" stroke="none"/>
    </g>
    <g text-rendering="geometricPrecision" stroke-miterlimit="1.45" shape-rendering="geometricPrecision" transform="matrix(1,0,0,1,-262,-79)" stroke-linecap="butt">
      <rect fill="none" x="901.5869" width="100" height="38.377" y="80.3193" clip-path="url(#clipPath2)"/>
      <text x="917.4219" font-size="20px" y="107.2764" clip-path="url(#clipPath2)" font-family="'Roboto Condensed'" stroke="none" xml:space="preserve">highlight</text>
    </g>
    <g fill="rgb(58,120,184)" text-rendering="geometricPrecision" shape-rendering="geometricPrecision" transform="matrix(1,0,0,1,-262,-79)" stroke="rgb(58,120,184)">
      <rect x="263.5869" width="100" height="38.377" y="466.5811" clip-path="url(#clipPath2)" stroke="none"/>
    </g>
    <g stroke-linecap="butt" font-size="20px" transform="matrix(1,0,0,1,-262,-79)" fill="white" text-rendering="geometricPrecision" font-family="'Roboto Condensed'" shape-rendering="geometricPrecision" stroke="white" stroke-miterlimit="1.45">
      <text x="278.6406" xml:space="preserve" y="493.5381" clip-path="url(#clipPath2)" stroke="none">#3a78b8</text>
    </g>
    <g fill="rgb(132,189,0)" text-rendering="geometricPrecision" shape-rendering="geometricPrecision" transform="matrix(1,0,0,1,-262,-79)" stroke="rgb(132,189,0)">
      <rect x="515.5869" width="100" height="38.377" y="337.8271" clip-path="url(#clipPath2)" stroke="none"/>
    </g>
    <g font-size="20px" stroke-linecap="butt" transform="matrix(1,0,0,1,-262,-79)" text-rendering="geometricPrecision" font-family="'Roboto Condensed'" shape-rendering="geometricPrecision" stroke-miterlimit="1.45">
      <text x="530.4697" xml:space="preserve" y="364.7842" clip-path="url(#clipPath2)" stroke="none">#84bd00</text>
    </g>
    <g fill="rgb(170,211,75)" text-rendering="geometricPrecision" shape-rendering="geometricPrecision" transform="matrix(1,0,0,1,-262,-79)" stroke="rgb(170,211,75)">
      <rect x="641.5869" y="736.1543" clip-path="url(#clipPath2)" width="100" rx="4" ry="4" height="38.377" stroke="none"/>
    </g>
    <g text-rendering="geometricPrecision" stroke-miterlimit="1.45" shape-rendering="geometricPrecision" transform="matrix(1,0,0,1,-262,-79)" stroke-linecap="butt">
      <rect x="641.5869" y="736.1543" clip-path="url(#clipPath2)" fill="none" width="100" rx="4" ry="4" height="38.377"/>
      <text x="656.7627" font-size="20px" y="763.1113" clip-path="url(#clipPath2)" font-family="'Roboto Condensed'" stroke="none" xml:space="preserve">#aad34b</text>
    </g>
    <g fill="rgb(200,226,138)" text-rendering="geometricPrecision" shape-rendering="geometricPrecision" transform="matrix(1,0,0,1,-262,-79)" stroke="rgb(200,226,138)">
      <rect x="771.5869" y="736.1543" clip-path="url(#clipPath2)" width="100" rx="4" ry="4" height="38.377" stroke="none"/>
    </g>
    <g text-rendering="geometricPrecision" stroke-miterlimit="1.45" shape-rendering="geometricPrecision" transform="matrix(1,0,0,1,-262,-79)" stroke-linecap="butt">
      <rect x="771.5869" y="736.1543" clip-path="url(#clipPath2)" fill="none" width="100" rx="4" ry="4" height="38.377"/>
      <text x="787.207" font-size="20px" y="763.1113" clip-path="url(#clipPath2)" font-family="'Roboto Condensed'" stroke="none" xml:space="preserve">#c8e28a</text>
    </g>
    <g fill="rgb(238,246,219)" text-rendering="geometricPrecision" shape-rendering="geometricPrecision" transform="matrix(1,0,0,1,-262,-79)" stroke="rgb(238,246,219)">
      <rect x="901.5869" width="100" height="38.377" y="736.1543" clip-path="url(#clipPath2)" stroke="none"/>
    </g>
    <g font-size="20px" stroke-linecap="butt" transform="matrix(1,0,0,1,-262,-79)" text-rendering="geometricPrecision" font-family="'Roboto Condensed'" shape-rendering="geometricPrecision" stroke-miterlimit="1.45">
      <text x="918.75" xml:space="preserve" y="763.1113" clip-path="url(#clipPath2)" stroke="none">#eef6db</text>
    </g>
    <g fill="rgb(123,171,220)" text-rendering="geometricPrecision" shape-rendering="geometricPrecision" transform="matrix(1,0,0,1,-262,-79)" stroke="rgb(123,171,220)">
      <rect x="641.5869" y="800.5312" clip-path="url(#clipPath2)" width="100" rx="4" ry="4" height="38.377" stroke="none"/>
    </g>
    <g text-rendering="geometricPrecision" stroke-miterlimit="1.45" shape-rendering="geometricPrecision" transform="matrix(1,0,0,1,-262,-79)" stroke-linecap="butt">
      <rect x="641.5869" y="800.5312" clip-path="url(#clipPath2)" fill="none" width="100" rx="4" ry="4" height="38.377"/>
      <text x="656.9385" font-size="20px" y="827.4883" clip-path="url(#clipPath2)" font-family="'Roboto Condensed'" stroke="none" xml:space="preserve">#7babdc</text>
    </g>
    <g fill="rgb(169,201,232)" text-rendering="geometricPrecision" shape-rendering="geometricPrecision" transform="matrix(1,0,0,1,-262,-79)" stroke="rgb(169,201,232)">
      <rect x="771.5869" y="800.5312" clip-path="url(#clipPath2)" width="100" rx="4" ry="4" height="38.377" stroke="none"/>
    </g>
    <g text-rendering="geometricPrecision" stroke-miterlimit="1.45" shape-rendering="geometricPrecision" transform="matrix(1,0,0,1,-262,-79)" stroke-linecap="butt">
      <rect x="771.5869" y="800.5312" clip-path="url(#clipPath2)" fill="none" width="100" rx="4" ry="4" height="38.377"/>
      <text x="787.207" font-size="20px" y="827.4883" clip-path="url(#clipPath2)" font-family="'Roboto Condensed'" stroke="none" xml:space="preserve">#a9c9e8</text>
    </g>
    <g fill="rgb(229,239,248)" text-rendering="geometricPrecision" shape-rendering="geometricPrecision" transform="matrix(1,0,0,1,-262,-79)" stroke="rgb(229,239,248)">
      <rect x="901.5869" width="100" height="38.377" y="800.5312" clip-path="url(#clipPath2)" stroke="none"/>
    </g>
    <g font-size="20px" stroke-linecap="butt" transform="matrix(1,0,0,1,-262,-79)" text-rendering="geometricPrecision" font-family="'Roboto Condensed'" shape-rendering="geometricPrecision" stroke-miterlimit="1.45">
      <text x="920.542" xml:space="preserve" y="827.4883" clip-path="url(#clipPath2)" stroke="none">#e5eff8</text>
    </g>
    <g fill="white" text-rendering="geometricPrecision" shape-rendering="geometricPrecision" transform="matrix(1,0,0,1,-262,-79)" stroke="white">
      <rect x="1031.5869" width="100" height="38.377" y="247.4502" clip-path="url(#clipPath2)" stroke="none"/>
    </g>
    <g stroke-linecap="butt" font-size="20px" transform="matrix(1,0,0,1,-262,-79)" fill="rgb(85,85,85)" text-rendering="geometricPrecision" font-family="'Roboto Condensed'" shape-rendering="geometricPrecision" stroke="rgb(85,85,85)" stroke-miterlimit="1.45">
      <text x="1046.4893" xml:space="preserve" y="274.4072" clip-path="url(#clipPath2)" stroke="none">#555555</text>
    </g>
    <g fill="white" text-rendering="geometricPrecision" shape-rendering="geometricPrecision" transform="matrix(1,0,0,1,-262,-79)" stroke="white">
      <rect x="1031.5869" width="100" height="38.377" y="414.8926" clip-path="url(#clipPath2)" stroke="none"/>
    </g>
    <g stroke-linecap="butt" font-size="20px" transform="matrix(1,0,0,1,-262,-79)" fill="rgb(115,144,0)" text-rendering="geometricPrecision" font-family="'Roboto Condensed'" shape-rendering="geometricPrecision" stroke="rgb(115,144,0)" stroke-miterlimit="1.45">
      <text x="1046.4893" xml:space="preserve" y="441.8496" clip-path="url(#clipPath2)" stroke="none">#739000</text>
    </g>
    <g fill="white" text-rendering="geometricPrecision" shape-rendering="geometricPrecision" transform="matrix(1,0,0,1,-262,-79)" stroke="white">
      <rect x="1031.5869" width="100" height="38.377" y="466.2695" clip-path="url(#clipPath2)" stroke="none"/>
    </g>
    <g stroke-linecap="butt" font-size="20px" transform="matrix(1,0,0,1,-262,-79)" fill="rgb(220,129,0)" text-rendering="geometricPrecision" font-family="'Roboto Condensed'" shape-rendering="geometricPrecision" stroke="rgb(220,129,0)" stroke-miterlimit="1.45">
      <text x="1046.7822" xml:space="preserve" y="493.2266" clip-path="url(#clipPath2)" stroke="none">#dc8100</text>
    </g>
    <g fill="white" text-rendering="geometricPrecision" shape-rendering="geometricPrecision" transform="matrix(1,0,0,1,-262,-79)" stroke="white">
      <rect x="1031.5869" width="100" height="38.377" y="736.1543" clip-path="url(#clipPath2)" stroke="none"/>
    </g>
    <g stroke-linecap="butt" font-size="20px" transform="matrix(1,0,0,1,-262,-79)" fill="rgb(94,132,0)" text-rendering="geometricPrecision" font-family="'Roboto Condensed'" shape-rendering="geometricPrecision" stroke="rgb(94,132,0)" stroke-miterlimit="1.45">
      <text x="1046.7432" xml:space="preserve" y="763.1113" clip-path="url(#clipPath2)" stroke="none">#5e8400</text>
    </g>
    <g fill="white" text-rendering="geometricPrecision" shape-rendering="geometricPrecision" transform="matrix(1,0,0,1,-262,-79)" stroke="white">
      <rect x="1031.5869" width="100" height="38.377" y="800.5312" clip-path="url(#clipPath2)" stroke="none"/>
    </g>
    <g stroke-linecap="butt" font-size="20px" transform="matrix(1,0,0,1,-262,-79)" fill="rgb(14,95,174)" text-rendering="geometricPrecision" font-family="'Roboto Condensed'" shape-rendering="geometricPrecision" stroke="rgb(14,95,174)" stroke-miterlimit="1.45">
      <text x="1048.916" xml:space="preserve" y="827.4883" clip-path="url(#clipPath2)" stroke="none">#0e5fae</text>
    </g>
    <g fill="white" text-rendering="geometricPrecision" shape-rendering="geometricPrecision" transform="matrix(1,0,0,1,-262,-79)" stroke="white">
      <rect x="1031.5869" width="100" height="38.377" y="80.3193" clip-path="url(#clipPath2)" stroke="none"/>
    </g>
    <g text-rendering="geometricPrecision" stroke-miterlimit="1.45" shape-rendering="geometricPrecision" transform="matrix(1,0,0,1,-262,-79)" stroke-linecap="butt">
      <rect fill="none" x="1031.5869" width="100" height="38.377" y="80.3193" clip-path="url(#clipPath2)"/>
      <text x="1066.6064" font-size="20px" y="107.2764" clip-path="url(#clipPath2)" font-family="'Roboto Condensed'" stroke="none" xml:space="preserve">text</text>
    </g>
    <g fill="white" text-rendering="geometricPrecision" shape-rendering="geometricPrecision" transform="matrix(1,0,0,1,-262,-79)" stroke="white">
      <rect x="1031.5869" width="100" height="38.377" y="192.0732" clip-path="url(#clipPath2)" stroke="none"/>
    </g>
    <g stroke-linecap="butt" font-size="20px" transform="matrix(1,0,0,1,-262,-79)" fill="rgb(24,176,226)" text-rendering="geometricPrecision" font-family="'Roboto Condensed'" shape-rendering="geometricPrecision" stroke="rgb(24,176,226)" stroke-miterlimit="1.45">
      <text x="1046.748" xml:space="preserve" y="219.0303" clip-path="url(#clipPath2)" stroke="none">#18b0e2</text>
    </g>
    <g fill="white" text-rendering="geometricPrecision" shape-rendering="geometricPrecision" transform="matrix(1,0,0,1,-262,-79)" stroke="white">
      <rect x="1031.5869" width="100" height="38.377" y="633.4004" clip-path="url(#clipPath2)" stroke="none"/>
    </g>
    <g stroke-linecap="butt" font-size="20px" transform="matrix(1,0,0,1,-262,-79)" fill="rgb(198,53,39)" text-rendering="geometricPrecision" font-family="'Roboto Condensed'" shape-rendering="geometricPrecision" stroke="rgb(198,53,39)" stroke-miterlimit="1.45">
      <text x="1046.8066" xml:space="preserve" y="660.3574" clip-path="url(#clipPath2)" stroke="none">#c63527</text>
    </g>
    <g fill="white" text-rendering="geometricPrecision" shape-rendering="geometricPrecision" transform="matrix(1,0,0,1,-262,-79)" stroke="white">
      <rect x="1031.5869" width="100" height="38.377" y="517.6465" clip-path="url(#clipPath2)" stroke="none"/>
    </g>
    <g stroke-linecap="butt" font-size="20px" transform="matrix(1,0,0,1,-262,-79)" fill="rgb(169,57,131)" text-rendering="geometricPrecision" font-family="'Roboto Condensed'" shape-rendering="geometricPrecision" stroke="rgb(169,57,131)" stroke-miterlimit="1.45">
      <text x="1046.6357" xml:space="preserve" y="544.6035" clip-path="url(#clipPath2)" stroke="none">#a93983</text>
    </g>
    <g fill="white" text-rendering="geometricPrecision" shape-rendering="geometricPrecision" transform="matrix(1,0,0,1,-262,-79)" stroke="white">
      <rect x="1031.5869" width="100" height="38.377" y="684.7773" clip-path="url(#clipPath2)" stroke="none"/>
    </g>
    <g stroke-linecap="butt" font-size="20px" transform="matrix(1,0,0,1,-262,-79)" fill="rgb(0,155,119)" text-rendering="geometricPrecision" font-family="'Roboto Condensed'" shape-rendering="geometricPrecision" stroke="rgb(0,155,119)" stroke-miterlimit="1.45">
      <text x="1046.4941" xml:space="preserve" y="711.7344" clip-path="url(#clipPath2)" stroke="none">#009b77</text>
    </g>
    <g fill="white" text-rendering="geometricPrecision" shape-rendering="geometricPrecision" transform="matrix(1,0,0,1,-262,-79)" stroke="white">
      <rect x="1031.5869" width="100" height="38.377" y="142.6963" clip-path="url(#clipPath2)" stroke="none"/>
    </g>
    <g stroke-linecap="butt" font-size="20px" transform="matrix(1,0,0,1,-262,-79)" fill="rgb(0,32,91)" text-rendering="geometricPrecision" font-family="'Roboto Condensed'" shape-rendering="geometricPrecision" stroke="rgb(0,32,91)" stroke-miterlimit="1.45">
      <text x="1046.4941" xml:space="preserve" y="169.6533" clip-path="url(#clipPath2)" stroke="none">#00205b</text>
    </g>
    <g fill="rgb(233,91,136)" text-rendering="geometricPrecision" shape-rendering="geometricPrecision" transform="matrix(1,0,0,1,-262,-79)" stroke="rgb(233,91,136)">
      <rect x="641.5869" y="311.8271" clip-path="url(#clipPath2)" width="100" rx="4" ry="4" height="38.377" stroke="none"/>
    </g>
    <g text-rendering="geometricPrecision" stroke-miterlimit="1.45" shape-rendering="geometricPrecision" transform="matrix(1,0,0,1,-262,-79)" stroke-linecap="butt">
      <rect x="641.5869" y="311.8271" clip-path="url(#clipPath2)" fill="none" width="100" rx="4" ry="4" height="38.377"/>
      <text x="656.748" font-size="20px" y="338.7842" clip-path="url(#clipPath2)" font-family="'Roboto Condensed'" stroke="none" xml:space="preserve">#e95b88</text>
    </g>
    <g fill="rgb(241,148,178)" text-rendering="geometricPrecision" shape-rendering="geometricPrecision" transform="matrix(1,0,0,1,-262,-79)" stroke="rgb(241,148,178)">
      <rect x="771.5869" y="311.8271" clip-path="url(#clipPath2)" width="100" rx="4" ry="4" height="38.377" stroke="none"/>
    </g>
    <g text-rendering="geometricPrecision" stroke-miterlimit="1.45" shape-rendering="geometricPrecision" transform="matrix(1,0,0,1,-262,-79)" stroke-linecap="butt">
      <rect x="771.5869" y="311.8271" clip-path="url(#clipPath2)" fill="none" width="100" rx="4" ry="4" height="38.377"/>
      <text x="788.2666" font-size="20px" y="338.7842" clip-path="url(#clipPath2)" font-family="'Roboto Condensed'" stroke="none" xml:space="preserve">#f194b2</text>
    </g>
    <g fill="rgb(251,222,231)" text-rendering="geometricPrecision" shape-rendering="geometricPrecision" transform="matrix(1,0,0,1,-262,-79)" stroke="rgb(251,222,231)">
      <rect x="901.5869" width="100" height="38.377" y="311.8271" clip-path="url(#clipPath2)" stroke="none"/>
    </g>
    <g font-size="20px" stroke-linecap="butt" transform="matrix(1,0,0,1,-262,-79)" text-rendering="geometricPrecision" font-family="'Roboto Condensed'" shape-rendering="geometricPrecision" stroke-miterlimit="1.45">
      <text x="918.75" xml:space="preserve" y="338.7842" clip-path="url(#clipPath2)" stroke="none">#fbdee7</text>
    </g>
    <g fill="white" text-rendering="geometricPrecision" shape-rendering="geometricPrecision" transform="matrix(1,0,0,1,-262,-79)" stroke="white">
      <rect x="1031.5869" width="100" height="38.377" y="311.8271" clip-path="url(#clipPath2)" stroke="none"/>
    </g>
    <g stroke-linecap="butt" font-size="20px" transform="matrix(1,0,0,1,-262,-79)" fill="rgb(215,51,103)" text-rendering="geometricPrecision" font-family="'Roboto Condensed'" shape-rendering="geometricPrecision" stroke="rgb(215,51,103)" stroke-miterlimit="1.45">
      <text x="1046.4648" xml:space="preserve" y="338.7842" clip-path="url(#clipPath2)" stroke="none">#d73367</text>
    </g>
    <g fill="rgb(123,189,220)" text-rendering="geometricPrecision" shape-rendering="geometricPrecision" transform="matrix(1,0,0,1,-262,-79)" stroke="rgb(123,189,220)">
      <rect x="641.5869" y="363.5156" clip-path="url(#clipPath2)" width="100" rx="4" ry="4" height="38.377" stroke="none"/>
    </g>
    <g text-rendering="geometricPrecision" stroke-miterlimit="1.45" shape-rendering="geometricPrecision" transform="matrix(1,0,0,1,-262,-79)" stroke-linecap="butt">
      <rect x="641.5869" y="363.5156" clip-path="url(#clipPath2)" fill="none" width="100" rx="4" ry="4" height="38.377"/>
      <text x="656.7676" font-size="20px" y="390.4727" clip-path="url(#clipPath2)" font-family="'Roboto Condensed'" stroke="none" xml:space="preserve">#7bbddc</text>
    </g>
    <g fill="rgb(169,212,232)" text-rendering="geometricPrecision" shape-rendering="geometricPrecision" transform="matrix(1,0,0,1,-262,-79)" stroke="rgb(169,212,232)">
      <rect x="771.5869" y="363.5156" clip-path="url(#clipPath2)" width="100" rx="4" ry="4" height="38.377" stroke="none"/>
    </g>
    <g text-rendering="geometricPrecision" stroke-miterlimit="1.45" shape-rendering="geometricPrecision" transform="matrix(1,0,0,1,-262,-79)" stroke-linecap="butt">
      <rect x="771.5869" y="363.5156" clip-path="url(#clipPath2)" fill="none" width="100" rx="4" ry="4" height="38.377"/>
      <text x="786.8652" font-size="20px" y="390.4727" clip-path="url(#clipPath2)" font-family="'Roboto Condensed'" stroke="none" xml:space="preserve">#a9d4e8</text>
    </g>
    <g fill="rgb(229,242,248)" text-rendering="geometricPrecision" shape-rendering="geometricPrecision" transform="matrix(1,0,0,1,-262,-79)" stroke="rgb(229,242,248)">
      <rect x="901.5869" width="100" height="38.377" y="363.5156" clip-path="url(#clipPath2)" stroke="none"/>
    </g>
    <g font-size="20px" stroke-linecap="butt" transform="matrix(1,0,0,1,-262,-79)" text-rendering="geometricPrecision" font-family="'Roboto Condensed'" shape-rendering="geometricPrecision" stroke-miterlimit="1.45">
      <text x="920.2881" xml:space="preserve" y="390.4727" clip-path="url(#clipPath2)" stroke="none">#e5f2f8</text>
    </g>
    <g fill="white" text-rendering="geometricPrecision" shape-rendering="geometricPrecision" transform="matrix(1,0,0,1,-262,-79)" stroke="white">
      <rect x="1031.5869" width="100" height="38.377" y="363.5156" clip-path="url(#clipPath2)" stroke="none"/>
    </g>
    <g stroke-linecap="butt" font-size="20px" transform="matrix(1,0,0,1,-262,-79)" fill="rgb(0,126,185)" text-rendering="geometricPrecision" font-family="'Roboto Condensed'" shape-rendering="geometricPrecision" stroke="rgb(0,126,185)" stroke-miterlimit="1.45">
      <text x="1046.748" xml:space="preserve" y="390.4727" clip-path="url(#clipPath2)" stroke="none">#007eb9</text>
    </g>
  </g>
</svg>
